<?xml version="1.0" encoding="UTF-8"?>
<svg version="1.1" xmlns="http://www.w3.org/2000/svg" width="947" height="263">
<path d="M0 0 C16 0 16 0 19.57421875 3.03515625 C20.71679688 4.99023438 20.71679688 4.99023438 21.6875 7.0625 C22.41947085 8.38732824 23.15254096 9.71154975 23.88671875 11.03515625 C24.22751465 11.69531738 24.56831055 12.35547852 24.91943359 13.03564453 C26.36142998 15.65704148 28.08645223 18.01036506 29.85766602 20.41650391 C31.38197917 22.52949709 32.67486635 24.75773437 34 27 C35.55795448 29.41280613 37.15289226 31.80048042 38.75 34.1875 C39.19174561 34.84878906 39.63349121 35.51007813 40.08862305 36.19140625 C44.09300874 42.16927301 48.15904571 48.10360738 52.3984375 53.91796875 C55.23442859 57.81101107 57.67436683 61.77940648 60 66 C60.33 66 60.66 66 61 66 C61.33 44.22 61.66 22.44 62 0 C66.62 0 71.24 0 76 0 C76 30.36 76 60.72 76 92 C60 92 60 92 56.0234375 88.37890625 C54.62109375 86.04101562 54.62109375 86.04101562 53.375 83.5625 C52.92511719 82.77939453 52.47523438 81.99628906 52.01171875 81.18945312 C51.10286307 79.60741924 50.21485355 78.01322577 49.34814453 76.40771484 C47.52931085 73.15937407 45.46476127 70.10720606 43.37451172 67.02905273 C41.05634548 63.6069782 38.89575379 60.08613989 36.7109375 56.578125 C35.04210395 53.9693417 35.04210395 53.9693417 33.0390625 51.609375 C31.11017709 49.1409929 29.59184047 46.61368464 28.07568359 43.87792969 C26.15256538 40.52054763 23.97166065 37.33362052 21.8125 34.125 C21.36197266 33.44953125 20.91144531 32.7740625 20.44726562 32.078125 C18.41691299 28.88651527 18.41691299 28.88651527 16 26 C15.67 47.78 15.34 69.56 15 92 C10.05 92 5.1 92 0 92 C0 61.64 0 31.28 0 0 Z " fill="#D8C277" transform="translate(529,85)"/>
<path d="M0 0 C5.28 0 10.56 0 16 0 C16 0.66 16 1.32 16 2 C16.66 2 17.32 2 18 2 C19.18920898 3.49707031 19.18920898 3.49707031 20.49609375 5.578125 C20.97240234 6.32707031 21.44871094 7.07601562 21.93945312 7.84765625 C22.43380859 8.64042969 22.92816406 9.43320313 23.4375 10.25 C24.41410005 11.79767366 25.39192777 13.34457345 26.37109375 14.890625 C26.80349365 15.58188477 27.23589355 16.27314453 27.68139648 16.98535156 C29.03927294 19.06000376 30.50767108 21.02073566 32 23 C33.00461295 24.6638902 34.0038762 26.33101373 35 28 C36.6417808 30.53749194 38.3201321 33.05010933 40 35.5625 C40.43828125 36.22185547 40.8765625 36.88121094 41.328125 37.56054688 C43.04560747 40.13418402 44.76028694 42.68249544 46.625 45.15234375 C48.2420927 47.32531207 49.60641152 49.67735253 51 52 C54.3 56.95 57.6 61.9 61 67 C61.33 44.89 61.66 22.78 62 0 C66.62 0 71.24 0 76 0 C76 30.36 76 60.72 76 92 C61 92 61 92 57.75 89.3125 C57.1725 88.219375 56.595 87.12625 56 86 C55.505 85.195625 55.01 84.39125 54.5 83.5625 C54.005 82.716875 53.51 81.87125 53 81 C52.19598137 79.86892295 51.38271788 78.74438549 50.5625 77.625 C48.53747804 74.83083023 46.82719354 71.95370442 45.15234375 68.93359375 C43.23341593 65.71369791 41.01215424 62.70740481 38.84375 59.65234375 C37.05399977 57.07768187 35.35879758 54.46529073 33.6875 51.8125 C30.78612645 47.21100032 27.82076781 42.65701485 24.8125 38.125 C24.18831177 37.17911011 24.18831177 37.17911011 23.55151367 36.21411133 C23.14908447 35.60978271 22.74665527 35.0054541 22.33203125 34.3828125 C21.80186401 33.58447998 21.80186401 33.58447998 21.26098633 32.77001953 C19.60272041 30.44234714 17.7853501 28.23168762 16 26 C15.67 47.78 15.34 69.56 15 92 C10.05 92 5.1 92 0 92 C0 61.64 0 31.28 0 0 Z " fill="#CEB67D" transform="translate(652,85)"/>
<path d="M0 0 C1.40745469 1.23479296 2.78304819 2.50681715 4.125 3.8125 C4.83398438 4.4828125 5.54296875 5.153125 6.2734375 5.84375 C17.24058437 17.09628731 18.66799589 30.21347049 18.484375 45.140625 C18.14150215 53.86354285 15.07206853 61.1028054 11.125 68.8125 C10.465 68.8125 9.805 68.8125 9.125 68.8125 C8.75761719 69.67875 8.75761719 69.67875 8.3828125 70.5625 C3.92448955 78.5376367 -5.19297406 83.63190508 -13.75 86.0625 C-27.35385004 88.67953181 -42.46564651 87.77988661 -54.5625 80.8125 C-65.11929443 73.51566806 -70.67154113 64.11149388 -73.875 51.8125 C-76.21907505 37.9570755 -75.08428893 23.18979348 -67.15234375 11.2109375 C-52.30612115 -8.32822624 -20.94931013 -15.34617266 0 0 Z M-52.6640625 16.921875 C-54.22918812 19.15776874 -55.58082036 21.41080125 -56.875 23.8125 C-57.2153125 24.40417969 -57.555625 24.99585937 -57.90625 25.60546875 C-61.51376239 33.1712239 -61.04270114 43.26625021 -58.99609375 51.234375 C-55.55392747 60.18627939 -51.01153588 66.60475722 -42.25 70.75 C-31.33913229 75.36132661 -22.64436826 74.178049 -11.875 69.8125 C-3.97170083 65.86085042 0.18294562 57.86443831 3.125 49.8125 C6.23854132 39.33967919 3.53534182 28.90585648 -1.5 19.5625 C-6.25348887 12.10443988 -13.04575497 8.46263585 -21.47265625 6.28125 C-32.83478341 4.06424958 -45.09333539 7.99569019 -52.6640625 16.921875 Z " fill="#976B37" transform="translate(843.875,91.1875)"/>
<path d="M0 0 C5.94 0 11.88 0 18 0 C18.721875 2.2275 19.44375 4.455 20.1875 6.75 C22.15402639 12.72975244 24.40117446 18.52067397 26.8828125 24.30859375 C28.15252376 27.36744361 29.18623258 30.45741748 30.1953125 33.609375 C31.16984416 36.50458557 32.26779736 39.3404075 33.375 42.1875 C36.05249557 49.07823185 38.53291846 56.03172002 41 63 C42.77368332 68.00681472 44.57787702 72.99043761 46.58203125 77.91015625 C46.85732666 78.58699463 47.13262207 79.26383301 47.41625977 79.96118164 C47.96254198 81.29705362 48.51364233 82.63096775 49.07006836 83.96264648 C50.23942626 86.81618104 51 88.8824379 51 92 C45.72 92 40.44 92 35 92 C34.34895833 89.72135417 33.69791667 87.44270833 33.046875 85.1640625 C31.57069667 80.70247874 29.74533198 76.36332996 28 72 C15.13 72 2.26 72 -11 72 C-12.65 76.95 -14.3 81.9 -16 87 C-16.99 88.65 -17.98 90.3 -19 92 C-21.78599571 92.38060051 -23.93372751 92.47962905 -26.6875 92.3125 C-27.38939453 92.28994141 -28.09128906 92.26738281 -28.81445312 92.24414062 C-30.5438833 92.18531647 -32.27221438 92.09563389 -34 92 C-31.02102143 82.78666421 -28.00252476 73.69433036 -24.15234375 64.80078125 C-22.53451542 60.86863577 -21.26938301 56.84147063 -19.96484375 52.796875 C-19.10195486 50.29554526 -18.12228355 47.9555404 -17 45.5625 C-14.83264479 40.89760657 -13.46377336 36.0640984 -12.00390625 31.140625 C-10.88859848 27.65149095 -9.48399482 24.41741501 -7.93359375 21.10546875 C-6.6680782 18.25143995 -5.74303891 15.32250013 -4.79296875 12.3515625 C-3.37991003 8.16111249 -1.67175741 4.09292331 0 0 Z M8 18 C4.62833179 25.70462055 1.76694333 33.45450293 -0.7890625 41.45703125 C-2 45 -2 45 -3.5859375 48.57421875 C-5.28525988 52.32781324 -5.28525988 52.32781324 -6 58 C3.57 58 13.14 58 23 58 C22.35660835 54.78304173 21.74677707 51.98509563 20.73046875 48.92578125 C20.48329102 48.18046143 20.23611328 47.4351416 19.98144531 46.66723633 C19.58844238 45.50164185 19.58844238 45.50164185 19.1875 44.3125 C18.91905273 43.51030029 18.65060547 42.70810059 18.37402344 41.8815918 C16.67981544 36.86846077 14.84515874 31.94544414 12.8125 27.05859375 C11.6407774 24.08985427 10.80514983 21.08640769 10 18 C9.34 18 8.68 18 8 18 Z " fill="#A0753F" transform="translate(129,85)"/>
<path d="M0 0 C0.00142502 0.77959076 0.00285004 1.55918152 0.00431824 2.36239624 C0.02222552 9.74711929 0.06406541 17.13115185 0.13209057 24.51556969 C0.16622939 28.311077 0.19144989 32.10618743 0.19555664 35.90185547 C0.19986812 39.57215437 0.22856236 43.24156 0.27343178 46.91157913 C0.28631675 48.3043864 0.29074671 49.69730107 0.28615379 51.09016037 C0.26436789 59.71143364 0.84659214 66.83200689 6 74 C11.10560592 78.79866484 16.56812631 79.27963884 23.2734375 79.2265625 C26.74287579 78.93827107 29.07559589 77.85450017 32 76 C32.7425 75.71125 33.485 75.4225 34.25 75.125 C36.73071572 73.53025418 37.12541852 71.75829545 38 69 C38.495 67.515 38.495 67.515 39 66 C39.11762201 63.86908944 39.1768694 61.73479475 39.20532227 59.60083008 C39.21522186 58.95665634 39.22512146 58.3124826 39.23532104 57.64878845 C39.26687467 55.5224066 39.29166905 53.39600242 39.31640625 51.26953125 C39.33698109 49.79407678 39.3579777 48.31862814 39.37937927 46.84318542 C39.43454526 42.96180949 39.48397862 39.08038085 39.53222656 35.19891357 C39.58248158 31.23737909 39.63814676 27.27592106 39.69335938 23.31445312 C39.80087399 15.54303351 39.90233377 7.77155028 40 0 C41.93674185 -0.19517554 43.87444009 -0.38087873 45.8125 -0.5625 C46.89144531 -0.66691406 47.97039062 -0.77132812 49.08203125 -0.87890625 C52 -1 52 -1 55 0 C55.06981514 8.43259227 55.12296998 16.86506178 55.15543652 25.29787254 C55.17102661 29.21447405 55.19214147 33.13087637 55.22631836 37.04736328 C55.25915161 40.8340002 55.27690294 44.62044672 55.28463173 48.40721512 C55.2901326 49.84476336 55.30087329 51.28230236 55.31719017 52.71976852 C55.42992675 63.07256883 55.1196821 74.69994956 48 83 C37.2752875 92.46196409 27.80388533 93.76511208 14.01660156 93.13476562 C5.09495521 92.53854906 -0.50381029 89.64628647 -6.8984375 83.4140625 C-12.48262275 76.99951513 -14.12873411 70.5462948 -14.11352539 62.21191406 C-14.11367142 61.53833359 -14.11381744 60.86475311 -14.1139679 60.17076111 C-14.11327324 57.95234924 -14.10550181 55.73402214 -14.09765625 53.515625 C-14.09579048 51.97434536 -14.09436733 50.43306512 -14.09336853 48.89178467 C-14.08955585 44.84102737 -14.07973624 40.79030609 -14.06866455 36.73956299 C-14.05842356 32.60372403 -14.05386515 28.46787924 -14.04882812 24.33203125 C-14.03811284 16.22133766 -14.02105143 8.11067332 -14 0 C-12.2300132 -0.19532961 -10.45895721 -0.38098882 -8.6875 -0.5625 C-7.70136719 -0.66691406 -6.71523438 -0.77132812 -5.69921875 -0.87890625 C-3 -1 -3 -1 0 0 Z " fill="#ECE095" transform="translate(429,85)"/>
<path d="M0 0 C4.95 0 9.9 0 15 0 C15.01981934 1.93238525 15.03963867 3.86477051 15.06005859 5.85571289 C15.12797542 12.25797087 15.20476163 18.66007504 15.28752708 25.06215763 C15.33735975 28.94171167 15.38369031 32.82124018 15.421875 36.70092773 C15.45889323 40.44876488 15.50529672 44.19638152 15.55806351 47.94402885 C15.57651999 49.37003121 15.59165984 50.79608069 15.60334396 52.22215462 C15.62035638 54.22770709 15.65052052 56.23313469 15.68115234 58.23852539 C15.69447601 59.37769913 15.70779968 60.51687286 15.7215271 61.69056702 C16.10448045 66.24166855 16.64468231 70.55547881 19.83984375 73.9609375 C20.53207031 74.42757812 21.22429687 74.89421875 21.9375 75.375 C22.62714844 75.85710937 23.31679687 76.33921875 24.02734375 76.8359375 C29.02302275 79.78388273 34.37865294 79.54523995 40 79 C44.45263236 77.70991612 47.27240659 75.80418219 50.375 72.375 C54.49981854 63.80806918 54.32702166 54.45286809 54.4140625 45.1171875 C54.43342865 43.82177032 54.4527948 42.52635315 54.4727478 41.19168091 C54.52361475 37.78225576 54.56348034 34.37279159 54.60089111 30.9631958 C54.64121931 27.47016105 54.69217863 23.97728219 54.7421875 20.484375 C54.83840707 13.65635837 54.92199549 6.82824881 55 0 C59.62 0 64.24 0 69 0 C69.09090208 8.38082191 69.16405871 16.76125105 69.20724869 25.14243603 C69.2279931 29.03549418 69.25606489 32.92819331 69.30175781 36.82104492 C69.34569188 40.58825953 69.36923552 44.35513207 69.37950897 48.12258339 C69.38681618 49.54930305 69.40108138 50.97600713 69.42292023 52.40257835 C69.57274013 62.60888489 69.25475328 73.5953134 62.6875 81.9375 C61.800625 82.618125 60.91375 83.29875 60 84 C59.49726563 84.49886719 58.99453125 84.99773437 58.4765625 85.51171875 C50.99218369 92.76770102 42.24406338 93.46355659 32.25830078 93.34936523 C21.9882847 93.01251236 14.41635225 90.35772496 7 83 C1.92917392 76.59344412 -0.25707595 70.18173521 -0.22705078 61.98486328 C-0.22734283 61.31099075 -0.22763489 60.63711823 -0.22793579 59.94282532 C-0.22655235 57.73518596 -0.21103834 55.52789225 -0.1953125 53.3203125 C-0.19157885 51.78189274 -0.18873354 50.2434706 -0.18673706 48.70504761 C-0.17912829 44.6707087 -0.15950372 40.63651552 -0.1373291 36.60223389 C-0.11681108 32.4796343 -0.10772264 28.35701101 -0.09765625 24.234375 C-0.076255 16.15617592 -0.04109556 8.07812292 0 0 Z " fill="#B9995B" transform="translate(215,85)"/>
<path d="M0 0 C19.8 0 39.6 0 60 0 C60 4.29 60 8.58 60 13 C52.41 13 44.82 13 37 13 C37 39.07 37 65.14 37 92 C32.38 92 27.76 92 23 92 C23 65.93 23 39.86 23 13 C15.41 13 7.82 13 0 13 C0 8.71 0 4.42 0 0 Z " fill="#D6C283" transform="translate(319,85)"/>
<path d="M0 0 C16 0 16 0 19.57421875 3.03515625 C20.71679688 4.99023438 20.71679688 4.99023438 21.6875 7.0625 C22.41947085 8.38732824 23.15254096 9.71154975 23.88671875 11.03515625 C24.22598389 11.69241699 24.56524902 12.34967773 24.91479492 13.02685547 C26.67266609 16.22305676 28.83530513 19.06683845 31 22 C34 26.55172414 34 26.55172414 34 30 C33.01524786 28.90081184 32.03739527 27.7954398 31.0625 26.6875 C30.51722656 26.07261719 29.97195313 25.45773438 29.41015625 24.82421875 C28 23 28 23 27 20 C24.50240018 18.30117552 24.50240018 18.30117552 22 17 C21.34 17.99 20.68 18.98 20 20 C19.34 20 18.68 20 18 20 C18 20.99 18 21.98 18 23 C18.99 23 19.98 23 21 23 C21.24234375 23.79664062 21.4846875 24.59328125 21.734375 25.4140625 C23.5656397 31.20367628 25.25846232 36.18945156 29 41 C28.67 41.66 28.34 42.32 28 43 C27.55269531 42.35933594 27.10539063 41.71867187 26.64453125 41.05859375 C26.03996094 40.19363281 25.43539062 39.32867187 24.8125 38.4375 C24.22082031 37.59058594 23.62914062 36.74367187 23.01953125 35.87109375 C20.69664717 32.56873438 18.34674644 29.28544502 16 26 C15.67 47.78 15.34 69.56 15 92 C10.05 92 5.1 92 0 92 C0 61.64 0 31.28 0 0 Z " fill="#E7D68A" transform="translate(529,85)"/>
<path d="M0 0 C0 0.33 0 0.66 0 1 C-0.95253662 1.05160278 -0.95253662 1.05160278 -1.92431641 1.10424805 C-4.82649806 1.27494905 -7.72516246 1.48089115 -10.625 1.6875 C-11.62402344 1.74099609 -12.62304688 1.79449219 -13.65234375 1.84960938 C-20.26388716 2.35313752 -23.24672644 3.42277361 -28 8 C-31.875 8.3125 -31.875 8.3125 -35 8 C-35 8.99 -35 9.98 -35 11 C-34.01 10.67 -33.02 10.34 -32 10 C-31.34 11.65 -30.68 13.3 -30 15 C-28.51793505 14.745504 -27.03931385 14.47088238 -25.5625 14.1875 C-24.73878906 14.03667969 -23.91507813 13.88585937 -23.06640625 13.73046875 C-22.38449219 13.48941406 -21.70257812 13.24835938 -21 13 C-20.67 12.01 -20.34 11.02 -20 10 C-19.505 11.485 -19.505 11.485 -19 13 C-17.02 13 -15.04 13 -13 13 C-13 13.33 -13 13.66 -13 14 C-13.92619141 14.22042969 -13.92619141 14.22042969 -14.87109375 14.4453125 C-23.72217145 16.78943353 -30.49486236 20.04151566 -35.4375 28 C-40.74013844 37.42691278 -41.83134392 48.02831734 -39.08984375 58.46484375 C-35.69788004 67.11380588 -31.91569576 72.85781463 -23.4375 76.875 C-17.73545812 79.31757681 -12.88222977 80.13057395 -6.6875 80.0625 C-5.61886719 80.05347656 -4.55023437 80.04445313 -3.44921875 80.03515625 C-2.23685547 80.01775391 -2.23685547 80.01775391 -1 80 C-4.9606522 83.9606522 -12.577245 82.97749894 -18 83 C-20.453125 82.578125 -20.453125 82.578125 -22.375 82 C-26.87599986 80.75834487 -30.45725839 81.22184519 -35 82 C-34.10031217 84.2543595 -34.10031217 84.2543595 -31.4375 85.5 C-30.633125 85.995 -29.82875 86.49 -29 87 C-29 87.66 -29 88.32 -29 89 C-27.0399719 90.63676257 -27.0399719 90.63676257 -25 92 C-34.75330277 90.56156326 -42.22868689 83.6750932 -48.0546875 76.10546875 C-56.06098962 63.3243238 -57.66791156 48.27489806 -54.6796875 33.72265625 C-51.78445229 22.12507611 -45.41654703 12.52369777 -35.6484375 5.47265625 C-24.49443716 -0.72949438 -12.34907259 -0.50924011 0 0 Z " fill="#AC8752" transform="translate(825,84)"/>
<path d="M0 0 C3.96 0 7.92 0 12 0 C12 29.7 12 59.4 12 90 C7.71 90 3.42 90 -1 90 C-3.88369027 87.11630973 -4.55094663 86.06729507 -5.6875 82.375 C-5.93886719 81.57835937 -6.19023438 80.78171875 -6.44921875 79.9609375 C-7 78 -7 78 -7 77 C-6.01 76.505 -6.01 76.505 -5 76 C-5 75.34 -5 74.68 -5 74 C-8.465 74.495 -8.465 74.495 -12 75 C-11.67 72.69 -11.34 70.38 -11 68 C-9.515 67.505 -9.515 67.505 -8 67 C-8 66.34 -8 65.68 -8 65 C-7.01 65.33 -6.02 65.66 -5 66 C-5 66.99 -5 67.98 -5 69 C-3.68 69.33 -2.36 69.66 -1 70 C-0.67 46.9 -0.34 23.8 0 0 Z " fill="#B59253" transform="translate(715,86)"/>
<path d="M0 0 C3.96 0 7.92 0 12 0 C12 29.7 12 59.4 12 90 C-2 90 -2 90 -4.9375 87.1875 C-6 84 -6 84 -5 81 C-4.67 82.32 -4.34 83.64 -4 85 C-3.34 85 -2.68 85 -2 85 C-1.505 84.01 -1.505 84.01 -1 83 C0.125 86.75 0.125 86.75 -1 89 C-0.01 89 0.98 89 2 89 C1.67 83.06 1.34 77.12 1 71 C-0.485 71.495 -0.485 71.495 -2 72 C-2 71.34 -2 70.68 -2 70 C-1.34 70 -0.68 70 0 70 C0 46.9 0 23.8 0 0 Z " fill="#D5BF78" transform="translate(592,86)"/>
<path d="M0 0 C3.96 0 7.92 0 12 0 C12.17704537 9.3183653 12.34299525 18.63684283 12.49477577 27.95565414 C12.56560206 32.28273011 12.64025137 36.60966975 12.72363281 40.93652344 C12.80395705 45.11202764 12.87424524 49.28759117 12.93757248 53.46338654 C12.96349965 55.05664547 12.99304511 56.64984975 13.02626419 58.24297333 C13.07216941 60.47412012 13.10521509 62.70511446 13.13525391 64.93652344 C13.15746002 66.20671326 13.17966614 67.47690308 13.20254517 68.7855835 C13.00983785 71.84387215 12.75045191 73.5168934 11 76 C8.625 76.9375 8.625 76.9375 6 77 C3.45042736 75.53546018 2.22691216 74.60148881 1.17874146 71.82304382 C-0.09708601 63.91425019 -0.25908162 56.14190601 -0.1953125 48.14453125 C-0.19157238 46.74777939 -0.18873015 45.35102486 -0.18673706 43.95426941 C-0.17917908 40.31619751 -0.15960016 36.6782908 -0.1373291 33.0402832 C-0.11669966 29.31268547 -0.10769916 25.5850605 -0.09765625 21.85742188 C-0.076345 14.57153133 -0.04122906 7.28581005 0 0 Z " fill="#AF8D4E" transform="translate(216,86)"/>
<path d="M0 0 C0.09314209 8.54568131 0.16398697 17.09114654 0.20724869 25.6372118 C0.22802399 29.60655097 0.25615443 33.57554 0.30175781 37.54467773 C0.34557889 41.38320489 0.3692125 45.22139766 0.37950897 49.06015587 C0.38683596 50.51643822 0.40114185 51.97270461 0.42292023 53.42884254 C0.55056279 62.3262003 -0.20122373 69.82600854 -4 78 C-4.66 77.67 -5.32 77.34 -6 77 C-6.495 77.99 -6.495 77.99 -7 79 C-7.99 78.67 -8.98 78.34 -10 78 C-10.6875 75.9375 -10.6875 75.9375 -11 74 C-12.98 74.99 -12.98 74.99 -15 76 C-15 75.01 -15 74.02 -15 73 C-16.32 73.99 -17.64 74.98 -19 76 C-19.66 75.67 -20.32 75.34 -21 75 C-20.2575 74.505 -19.515 74.01 -18.75 73.5 C-15.34137326 70.40124842 -13.81273937 67.17233866 -12 63 C-11.34 63 -10.68 63 -10 63 C-10 42.54 -10 22.08 -10 1 C-6.78548731 -0.60725635 -3.56387464 -0.05748185 0 0 Z " fill="#BFA15D" transform="translate(281,87)"/>
<path d="M0 0 C12.41214902 -0.31154993 20.00993789 1.68749012 29.203125 10.15234375 C37.203125 18.29901042 37.203125 18.29901042 37.203125 21.15234375 C33.96040994 20.59325495 32.27255076 19.73912595 30.203125 17.15234375 C30.203125 16.49234375 30.203125 15.83234375 30.203125 15.15234375 C29.213125 15.15234375 28.223125 15.15234375 27.203125 15.15234375 C26.9246875 17.10140625 26.9246875 17.10140625 26.640625 19.08984375 C26.48400391 20.18619141 26.48400391 20.18619141 26.32421875 21.3046875 C26.28425781 21.91441406 26.24429688 22.52414063 26.203125 23.15234375 C26.533125 23.48234375 26.863125 23.81234375 27.203125 24.15234375 C27.27492464 25.67162413 27.28704507 27.19401857 27.265625 28.71484375 C27.25660156 29.54113281 27.24757813 30.36742188 27.23828125 31.21875 C27.22667969 31.85683594 27.21507812 32.49492188 27.203125 33.15234375 C25.64238722 31.1456809 24.21637683 29.17542092 22.94921875 26.96875 C19.18785148 20.49021592 15.13231089 17.79681566 8.203125 15.15234375 C6.594375 14.53359375 6.594375 14.53359375 4.953125 13.90234375 C0.02452905 12.91662456 -4.86623395 12.70731811 -9.8828125 12.49609375 C-10.84445312 12.38265625 -11.80609375 12.26921875 -12.796875 12.15234375 C-13.126875 11.49234375 -13.456875 10.83234375 -13.796875 10.15234375 C-14.126875 10.81234375 -14.456875 11.47234375 -14.796875 12.15234375 C-16.86328125 13.00390625 -16.86328125 13.00390625 -19.359375 13.77734375 C-20.18566406 14.03773437 -21.01195312 14.298125 -21.86328125 14.56640625 C-22.50136719 14.75976562 -23.13945313 14.953125 -23.796875 15.15234375 C-24.456875 13.50234375 -25.116875 11.85234375 -25.796875 10.15234375 C-26.786875 10.15234375 -27.776875 10.15234375 -28.796875 10.15234375 C-28.796875 9.16234375 -28.796875 8.17234375 -28.796875 7.15234375 C-27.25 7.05953125 -27.25 7.05953125 -25.671875 6.96484375 C-21.68129658 6.47624836 -21.68129658 6.47624836 -19.109375 3.65234375 C-14.00478931 -1.00894897 -6.48278636 0.2601118 0 0 Z " fill="#9F753D" transform="translate(818.796875,84.84765625)"/>
<path d="M0 0 C4.62 0 9.24 0 14 0 C14 30.36 14 60.72 14 92 C-1 92 -1 92 -4.25 89.3125 C-4.8275 88.219375 -5.405 87.12625 -6 86 C-6.495 85.195625 -6.99 84.39125 -7.5 83.5625 C-7.995 82.716875 -8.49 81.87125 -9 81 C-9.80401863 79.86892295 -10.61728212 78.74438549 -11.4375 77.625 C-13.46252196 74.83083023 -15.17280646 71.95370442 -16.84765625 68.93359375 C-18.75799788 65.72810526 -20.96771709 62.73492048 -23.12890625 59.6953125 C-25.680592 56.01960652 -28.05370345 52.24102671 -30.421875 48.4453125 C-31.86095236 46.215455 -33.37877899 44.0997742 -35 42 C-34.34 40.68 -33.68 39.36 -33 38 C-32.32880451 39.4562545 -31.66318193 40.91507867 -31 42.375 C-30.62875 43.18710938 -30.2575 43.99921875 -29.875 44.8359375 C-29 47 -29 47 -29 49 C-28.01 49 -27.02 49 -26 49 C-26 49.66 -26 50.32 -26 51 C-25.34 51 -24.68 51 -24 51 C-24 48.36 -24 45.72 -24 43 C-23.01 42.505 -23.01 42.505 -22 42 C-23.485 38.535 -23.485 38.535 -25 35 C-26.65 35 -28.3 35 -30 35 C-30 34.34 -30 33.68 -30 33 C-29.01 33 -28.02 33 -27 33 C-27.515625 32.21625 -28.03125 31.4325 -28.5625 30.625 C-29.2740625 29.325625 -29.2740625 29.325625 -30 28 C-29.67 27.34 -29.34 26.68 -29 26 C-23.45599043 32.93821316 -18.41636412 40.07071123 -13.75 47.625 C-9.63563694 54.1705776 -5.28853819 60.56719271 -1 67 C-0.67 44.89 -0.34 22.78 0 0 Z M1 1 C0.67 24.1 0.34 47.2 0 71 C-1.32 70.67 -2.64 70.34 -4 70 C-4.33 68.68 -4.66 67.36 -5 66 C-5.66 66 -6.32 66 -7 66 C-7 66.66 -7 67.32 -7 68 C-8.485 68.495 -8.485 68.495 -10 69 C-10.33 71.31 -10.66 73.62 -11 76 C-7.535 75.505 -7.535 75.505 -4 75 C-4 75.66 -4 76.32 -4 77 C-4.99 77.495 -4.99 77.495 -6 78 C-5.67 78.33 -5.34 78.66 -5 79 C-5 79.99 -5 80.98 -5 82 C-4.43030634 84.04266282 -4.43030634 84.04266282 -3.625 86.125 C-3.36976563 86.82882813 -3.11453125 87.53265625 -2.8515625 88.2578125 C-2.12541721 90.19028413 -2.12541721 90.19028413 0 91 C4.29 91 8.58 91 13 91 C13 61.3 13 31.6 13 1 C9.04 1 5.08 1 1 1 Z " fill="#D3BC92" transform="translate(714,85)"/>
<path d="M0 0 C1 3 1 3 0.0625 5.1875 C-0.288125 5.785625 -0.63875 6.38375 -1 7 C-1.66 7 -2.32 7 -3 7 C-3.24492188 7.5775 -3.48984375 8.155 -3.7421875 8.75 C-8.20051045 16.7251367 -17.31797406 21.81940508 -25.875 24.25 C-30.59496003 25.17418798 -35.3310868 25.20926677 -40.125 25.25 C-41.27137939 25.26401855 -41.27137939 25.26401855 -42.44091797 25.27832031 C-49.22730347 25.24010372 -55.41285753 24.10819299 -61 20 C-61.33 19.01 -61.66 18.02 -62 17 C-64.00016466 15.79117904 -64.00016466 15.79117904 -66 15 C-66 14.34 -66 13.68 -66 13 C-61.19660228 11.49168671 -57.31557029 10.68577833 -52.375 11.9375 C-45.60132692 13.62020043 -38.86738913 12.67758239 -32 12 C-32 11.34 -32 10.68 -32 10 C-31.18015625 9.67386719 -30.3603125 9.34773437 -29.515625 9.01171875 C-28.43796875 8.57472656 -27.3603125 8.13773438 -26.25 7.6875 C-25.18265625 7.25824219 -24.1153125 6.82898438 -23.015625 6.38671875 C-20.3347085 5.15391388 -18.2616808 3.87192513 -16 2 C-17.50223584 6.20626034 -20.28550034 7.73900021 -24 10 C-23.505 10.99 -23.505 10.99 -23 12 C-23.4375 14.125 -23.4375 14.125 -24 16 C-23.34 16.33 -22.68 16.66 -22 17 C-22.33 17.66 -22.66 18.32 -23 19 C-20.7522025 16.94766315 -19.9977758 15.99332739 -19 13 C-17.35 12.67 -15.7 12.34 -14 12 C-14 12.66 -14 13.32 -14 14 C-13.34 14 -12.68 14 -12 14 C-11.67 12.68 -11.34 11.36 -11 10 C-10.01 10 -9.02 10 -8 10 C-8.04125 8.88625 -8.0825 7.7725 -8.125 6.625 C-8 3 -8 3 -6 1 C-5.505 3.475 -5.505 3.475 -5 6 C-4.01 6 -3.02 6 -2 6 C-1.34 4.02 -0.68 2.04 0 0 Z " fill="#9F753F" transform="translate(856,153)"/>
<path d="M0 0 C4.62 0 9.24 0 14 0 C14.09090208 8.38082191 14.16405871 16.76125105 14.20724869 25.14243603 C14.2279931 29.03549418 14.25606489 32.92819331 14.30175781 36.82104492 C14.34569188 40.58825953 14.36923552 44.35513207 14.37950897 48.12258339 C14.38681618 49.54930305 14.40108138 50.97600713 14.42292023 52.40257835 C14.57274013 62.60888489 14.25475328 73.5953134 7.6875 81.9375 C6.800625 82.618125 5.91375 83.29875 5 84 C4.49726563 84.49886719 3.99453125 84.99773437 3.4765625 85.51171875 C-4.01405535 92.77374967 -12.74277751 93.44122123 -22.73071289 93.35595703 C-29.70480458 93.14266301 -36.122714 92.39773833 -41.625 87.8125 C-42.07875 87.214375 -42.5325 86.61625 -43 86 C-41.5608866 86.28359887 -40.12374482 86.57721399 -38.6875 86.875 C-37.88699219 87.03742188 -37.08648437 87.19984375 -36.26171875 87.3671875 C-34 88 -34 88 -31 90 C-28.9082841 90.30657857 -28.9082841 90.30657857 -26.61328125 90.265625 C-25.75669922 90.26820313 -24.90011719 90.27078125 -24.01757812 90.2734375 C-22.67856445 90.26183594 -22.67856445 90.26183594 -21.3125 90.25 C-20.43916016 90.25773437 -19.56582031 90.26546875 -18.66601562 90.2734375 C-11.91283382 90.25326369 -5.76203154 89.84135436 0 86 C1.20450304 83.44816596 1.20450304 83.44816596 2 81 C2.66 81 3.32 81 4 81 C4.495 79.515 4.495 79.515 5 78 C5.474375 77.566875 5.94875 77.13375 6.4375 76.6875 C10.15014307 72.67784548 10.25982062 67.3825123 10.31884766 62.16845703 C10.33391609 61.18690895 10.33391609 61.18690895 10.34928894 60.18553162 C10.37994662 58.04296675 10.39710683 55.9005258 10.4140625 53.7578125 C10.43278823 52.26422065 10.45236269 50.77063922 10.4727478 49.27706909 C10.52392678 45.36122806 10.56362827 41.44535279 10.60089111 37.52935791 C10.6410204 33.52729927 10.69207188 29.52538134 10.7421875 25.5234375 C10.83877807 17.68238803 10.92323635 9.84126853 11 2 C7.7 2.33 4.4 2.66 1 3 C1 23.46 1 43.92 1 65 C0.34 65 -0.32 65 -1 65 C-0.67 43.55 -0.34 22.1 0 0 Z " fill="#CFBA90" transform="translate(270,85)"/>
<path d="M0 0 C0.06981514 8.43259227 0.12296998 16.86506178 0.15543652 25.29787254 C0.17102661 29.21447405 0.19214147 33.13087637 0.22631836 37.04736328 C0.25915161 40.8340002 0.27690294 44.62044672 0.28463173 48.40721512 C0.2901326 49.84476336 0.30087329 51.28230236 0.31719017 52.71976852 C0.42923556 63.00909555 0.16026087 74.78784514 -7 83 C-10.52908353 85.8814049 -14.20552333 88.48125255 -18 91 C-18.66 90.67 -19.32 90.34 -20 90 C-16.25 87 -16.25 87 -14 87 C-14 86.34 -14 85.68 -14 85 C-12.515 84.01 -12.515 84.01 -11 83 C-10.67 82.01 -10.34 81.02 -10 80 C-9.34 80 -8.68 80 -8 80 C-7.34 78.35 -6.68 76.7 -6 75 C-5.34 75 -4.68 75 -4 75 C-3.06989856 71.06402078 -2.8787502 67.41364581 -2.88647461 63.3737793 C-2.88632858 62.72931351 -2.88618256 62.08484772 -2.8860321 61.42085266 C-2.88672494 59.30527296 -2.89448769 57.18978294 -2.90234375 55.07421875 C-2.90421017 53.60162911 -2.90563301 52.12903885 -2.90663147 50.65644836 C-2.91043904 46.79147612 -2.92025421 42.9265418 -2.93133545 39.06158447 C-2.9415875 35.11332716 -2.94613721 31.16506368 -2.95117188 27.21679688 C-2.96187813 19.47784735 -2.97893331 11.738929 -3 4 C-5.64 4 -8.28 4 -11 4 C-12.31852057 6.63704114 -12.14642463 8.63877364 -12.17358398 11.59204102 C-12.18707382 12.76408585 -12.20056366 13.93613068 -12.21446228 15.14369202 C-12.22490067 16.41756271 -12.23533905 17.69143341 -12.24609375 19.00390625 C-12.27060339 21.00222258 -12.29512427 23.00053884 -12.32029057 24.99884701 C-12.3809718 29.93119257 -12.43146139 34.86363423 -12.47680664 39.79614258 C-12.50258928 42.55875551 -12.53346971 45.32122804 -12.56959534 48.08372498 C-12.60321351 50.68362006 -12.62922416 53.28362782 -12.64659119 55.88368225 C-12.87937929 72.58687988 -12.87937929 72.58687988 -16.8125 77.0625 C-19.36752447 78.15751049 -21.24706838 78.22941097 -24 78 C-22.625 76 -22.625 76 -21 74 C-20.34 74 -19.68 74 -19 74 C-16.95577025 68.95756661 -15.86760501 65.07037561 -15.79467773 59.60083008 C-15.77982834 58.63456947 -15.77982834 58.63456947 -15.76467896 57.64878845 C-15.73312533 55.5224066 -15.70833095 53.39600242 -15.68359375 51.26953125 C-15.66301891 49.79407678 -15.6420223 48.31862814 -15.62062073 46.84318542 C-15.56545474 42.96180949 -15.51602138 39.08038085 -15.46777344 35.19891357 C-15.41751842 31.23737909 -15.36185324 27.27592106 -15.30664062 23.31445312 C-15.19912601 15.54303351 -15.09766623 7.77155028 -15 0 C-9.62374766 -0.84888195 -5.34629602 -1.0024305 0 0 Z " fill="#F9F8D6" transform="translate(484,85)"/>
<path d="M0 0 C0.33 0 0.66 0 1 0 C1 30.03 1 60.06 1 91 C4.96 91 8.92 91 13 91 C13 67.57 13 44.14 13 20 C13.66 20 14.32 20 15 20 C14.938125 18.8553125 14.938125 18.8553125 14.875 17.6875 C15 15 15 15 17 12 C17.33 11.34 17.66 10.68 18 10 C18.99 10 19.98 10 21 10 C21 10.99 21 11.98 21 13 C21.721875 13.185625 22.44375 13.37125 23.1875 13.5625 C27.08385523 15.55397045 28.7138276 18.36255044 31 22 C31.598125 22.9075 32.19625 23.815 32.8125 24.75 C34 27 34 27 34 30 C33.01524786 28.90081184 32.03739527 27.7954398 31.0625 26.6875 C30.51722656 26.07261719 29.97195313 25.45773438 29.41015625 24.82421875 C28 23 28 23 27 20 C24.50240018 18.30117552 24.50240018 18.30117552 22 17 C21.34 17.99 20.68 18.98 20 20 C19.34 20 18.68 20 18 20 C18 20.99 18 21.98 18 23 C18.99 23 19.98 23 21 23 C21.24234375 23.79664062 21.4846875 24.59328125 21.734375 25.4140625 C23.5656397 31.20367628 25.25846232 36.18945156 29 41 C28.67 41.66 28.34 42.32 28 43 C27.55269531 42.35933594 27.10539063 41.71867187 26.64453125 41.05859375 C26.03996094 40.19363281 25.43539062 39.32867187 24.8125 38.4375 C24.22082031 37.59058594 23.62914062 36.74367187 23.01953125 35.87109375 C20.69664717 32.56873438 18.34674644 29.28544502 16 26 C15.67 47.78 15.34 69.56 15 92 C10.05 92 5.1 92 0 92 C0 61.64 0 31.28 0 0 Z " fill="#E4D8A0" transform="translate(529,85)"/>
<path d="M0 0 C2.54334586 2.54334586 3.0946474 4.77920983 4.25 8.1875 C6.3346698 14.25308271 8.63829548 20.19785241 11.12011719 26.11206055 C12.27755275 28.92465939 13 30.92297645 13 34 C7.72 34 2.44 34 -3 34 C-3.65104167 31.72135417 -4.30208333 29.44270833 -4.953125 27.1640625 C-6.42930333 22.70247874 -8.25466802 18.36332996 -10 14 C-23.2 14 -36.4 14 -50 14 C-50 13.34 -50 12.68 -50 12 C-36.14 12 -22.28 12 -8 12 C-7.01 14.64 -6.02 17.28 -5 20 C-5 18.02 -5 16.04 -5 14 C-3.68 14.33 -2.36 14.66 -1 15 C-1 15.66 -1 16.32 -1 17 C-0.34 16.67 0.32 16.34 1 16 C1.09688221 10.55306686 1.12862175 5.36095333 0 0 Z " fill="#B38F5D" transform="translate(167,143)"/>
<path d="M0 0 C4.50752749 2.56109516 6.7085095 4.66944149 9.0625 9.26953125 C10.06174116 11.23997173 10.06174116 11.23997173 12.125 13.625 C15.14933606 17.45582567 16 20.117937 16 25 C16.928125 25.2475 16.928125 25.2475 17.875 25.5 C21.27756949 27.90181375 21.22612026 31.00162134 22 35 C20.35 35.99 18.7 36.98 17 38 C16.7525 37.38125 16.505 36.7625 16.25 36.125 C14.79371361 33.64931313 13.62187494 33.04874998 11 32 C11 31.01 11 30.02 11 29 C10.40445313 28.7628125 9.80890625 28.525625 9.1953125 28.28125 C4.32420714 25.4383273 1.68336315 19.37887738 0.171875 14.1171875 C-0.30075249 11.74729825 -0.70409351 9.39786294 -1 7 C-1.99 7 -2.98 7 -4 7 C-4 6.01 -4 5.02 -4 4 C-3.34 4 -2.68 4 -2 4 C-1.34 2.68 -0.68 1.36 0 0 Z " fill="#DECE84" transform="translate(551,101)"/>
<path d="M0 0 C2.63892097 2.52590509 4.82575789 4.99936735 6.8125 8.0625 C7.57626953 9.23232422 7.57626953 9.23232422 8.35546875 10.42578125 C10.68837371 14.07752559 12.99821101 17.74360641 15.2890625 21.421875 C16.98593474 24.06926256 16.98593474 24.06926256 19.1328125 26.62109375 C21.23979464 29.30551241 22.08848745 31.7337467 23 35 C21.0625 34.6875 21.0625 34.6875 19 34 C18.67 33.01 18.34 32.02 18 31 C14.56507836 35.99884594 14.56507836 35.99884594 14.25 41.9375 C14.4975 42.948125 14.745 43.95875 15 45 C11.83831832 42.89221221 10.81145768 41.0686577 9.03515625 37.79296875 C7.94876064 35.80733595 7.94876064 35.80733595 6 33.5 C3.99803828 30.99754785 2.5424092 28.48872227 1.0078125 25.69140625 C-0.07452924 23.77596216 -0.07452924 23.77596216 -2.125 21.4375 C-4.21330475 18.72270382 -5.08480738 16.27944023 -6 13 C-4.02 13.99 -4.02 13.99 -2 15 C-2 15.99 -2 16.98 -2 18 C-1.38125 18.0825 -0.7625 18.165 -0.125 18.25 C2 19 2 19 3.25 21.0625 C3.4975 21.701875 3.745 22.34125 4 23 C5.32 22.34 6.64 21.68 8 21 C7.5978125 19.081875 7.5978125 19.081875 7.1875 17.125 C7.03667969 16.40570313 6.88585937 15.68640625 6.73046875 14.9453125 C6.07691162 12.62953451 6.07691162 12.62953451 3 11 C2.05078125 8.3984375 2.05078125 8.3984375 1.3125 5.375 C1.06113281 4.37210937 0.80976562 3.36921875 0.55078125 2.3359375 C0.36902344 1.56507812 0.18726563 0.79421875 0 0 Z " fill="#DAC981" transform="translate(564,115)"/>
<path d="M0 0 C4.95 0 9.9 0 15 0 C18.4375 3.5 18.4375 3.5 20 7 C19.67 7.66 19.34 8.32 19 9 C18.62875 8.34 18.2575 7.68 17.875 7 C16.09105222 4.64696955 16.09105222 4.64696955 12.8125 4.75 C11.884375 4.8325 10.95625 4.915 10 5 C10.33 4.01 10.66 3.02 11 2 C7.7 1.67 4.4 1.34 1 1 C1.0714624 2.02899414 1.1429248 3.05798828 1.21655273 4.11816406 C2.26424829 20.85449232 2.11656921 37.59891214 2.06866455 54.35906982 C2.05827386 58.38911404 2.05383385 62.41916489 2.04882812 66.44921875 C2.03823292 74.2994968 2.02125834 82.14974279 2 90 C4.97 90 7.94 90 11 90 C11 66.57 11 43.14 11 19 C11.99 19.33 12.98 19.66 14 20 C13.34 20 12.68 20 12 20 C12 43.43 12 66.86 12 91 C8.04 91 4.08 91 0 91 C0 60.97 0 30.94 0 0 Z " fill="#E2D690" transform="translate(530,85)"/>
<path d="M0 0 C1.4836027 1.93513396 2.90799591 3.84999993 4.18359375 5.9296875 C8.67994046 12.90532819 15.52856396 16.55015575 23.4765625 18.65625 C26.44936894 19.06121434 29.31307657 19.0954607 32.3125 19.0625 C33.38113281 19.05347656 34.44976563 19.04445312 35.55078125 19.03515625 C36.76314453 19.01775391 36.76314453 19.01775391 38 19 C34.0393478 22.9606522 26.422755 21.97749894 21 22 C18.546875 21.578125 18.546875 21.578125 16.625 21 C12.12400014 19.75834487 8.54274161 20.22184519 4 21 C4.89968783 23.2543595 4.89968783 23.2543595 7.5625 24.5 C8.366875 24.995 9.17125 25.49 10 26 C10 26.66 10 27.32 10 28 C11.9600281 29.63676257 11.9600281 29.63676257 14 31 C3.85059371 29.50314511 -3.14327663 22.32027208 -9.3203125 14.6484375 C-11.00323308 11.99490226 -11.63144856 10.09359844 -12 7 C-11.38125 7.804375 -10.7625 8.60875 -10.125 9.4375 C-8.25835959 12.03874519 -8.25835959 12.03874519 -6 13 C-6 13.66 -6 14.32 -6 15 C-5.34 15 -4.68 15 -4 15 C-4 15.66 -4 16.32 -4 17 C-3.071875 16.979375 -2.14375 16.95875 -1.1875 16.9375 C2 17 2 17 5 18 C5.99 17.34 6.98 16.68 8 16 C7.34 14.68 6.68 13.36 6 12 C5.67 12.99 5.34 13.98 5 15 C3.68 15 2.36 15 1 15 C0 12 0 12 0.5 9.1875 C1.02832877 5.81940406 0.70974071 3.31212333 0 0 Z " fill="#A27B48" transform="translate(786,145)"/>
<path d="M0 0 C1.38671875 1.64453125 1.38671875 1.64453125 2.6875 3.8125 C3.34298828 4.87404297 3.34298828 4.87404297 4.01171875 5.95703125 C5 8 5 8 5 11 C4.01 11 3.02 11 2 11 C2 11.66 2 12.32 2 13 C2.78375 12.79375 3.5675 12.5875 4.375 12.375 C5.674375 12.189375 5.674375 12.189375 7 12 C9.3129482 14.3129482 9.49580975 15.47904875 10.125 18.625 C10.29257812 19.44226563 10.46015625 20.25953125 10.6328125 21.1015625 C10.75398437 21.72804687 10.87515625 22.35453125 11 23 C10.67 22.34 10.34 21.68 10 21 C9.34 21 8.68 21 8 21 C8 23.64 8 26.28 8 29 C7.34 29 6.68 29 6 29 C6 28.34 6 27.68 6 27 C5.01 27 4.02 27 3 27 C1.68 24.03 0.36 21.06 -1 18 C-1.66 18 -2.32 18 -3 18 C-4.65 13.71 -6.3 9.42 -8 5 C-3.375 0 -3.375 0 0 0 Z " fill="#BDA15E" transform="translate(682,107)"/>
<path d="M0 0 C3.62044679 3.42491743 6.42674533 6.87755991 9.125 11.0625 C11.74477745 15.12697304 11.74477745 15.12697304 14.5546875 19.05859375 C16.21192457 21.28466625 17.58050871 23.61539552 19 26 C20.38532606 28.11109918 21.78154091 30.21508562 23.1875 32.3125 C23.90292969 33.38113281 24.61835937 34.44976562 25.35546875 35.55078125 C25.89816406 36.35902344 26.44085937 37.16726562 27 38 C26.67 38.66 26.34 39.32 26 40 C24.0625 39.3125 24.0625 39.3125 22 38 C21.375 35.4375 21.375 35.4375 21 33 C20.34 32.67 19.68 32.34 19 32 C19 31.34 19 30.68 19 30 C17.68 30 16.36 30 15 30 C14.67 27.69 14.34 25.38 14 23 C12.68 22.67 11.36 22.34 10 22 C10.020625 22.763125 10.04125 23.52625 10.0625 24.3125 C10 27 10 27 9 30 C9.79171517 32.25752069 9.79171517 32.25752069 11 34.5625 C12.1875 36.94140625 12.1875 36.94140625 13 39 C12.67 39.66 12.34 40.32 12 41 C7.66674121 34.9281693 3.52692926 28.77447073 -0.421875 22.4453125 C-1.86095236 20.215455 -3.37877899 18.0997742 -5 16 C-4.34 14.68 -3.68 13.36 -3 12 C-2.32880451 13.4562545 -1.66318193 14.91507867 -1 16.375 C-0.62875 17.18710938 -0.2575 17.99921875 0.125 18.8359375 C1 21 1 21 1 23 C1.99 23 2.98 23 4 23 C4 23.66 4 24.32 4 25 C4.66 25 5.32 25 6 25 C6 22.36 6 19.72 6 17 C6.66 16.67 7.32 16.34 8 16 C7.01 13.69 6.02 11.38 5 9 C3.35 9 1.7 9 0 9 C0 8.34 0 7.68 0 7 C0.99 7 1.98 7 3 7 C2.505 6.21625 2.01 5.4325 1.5 4.625 C0 2 0 2 0 0 Z " fill="#CBB589" transform="translate(684,111)"/>
<path d="M0 0 C4.95 0 9.9 0 15 0 C15.33 22.77 15.66 45.54 16 69 C13.03285107 66.03285107 13.04877443 63.18314357 12.87974548 59.08293152 C12.88196609 58.01037613 12.88418671 56.93782074 12.88647461 55.83276367 C12.88655014 54.61187546 12.88662567 53.39098724 12.88670349 52.13310242 C12.89186478 50.82460831 12.89702606 49.5161142 12.90234375 48.16796875 C12.90421039 46.80748039 12.90563313 45.44699135 12.90663147 44.08650208 C12.91043725 40.51744713 12.92025086 36.94843331 12.93133545 33.37939453 C12.94159137 29.73275305 12.94613803 26.08610489 12.95117188 22.43945312 C12.96187497 15.29295038 12.97945596 8.14648222 13 1 C9.04 1 5.08 1 1 1 C1.10805438 9.16244854 1.22013915 17.32481112 1.33933926 25.48710346 C1.39452584 29.27709879 1.447939 33.06710189 1.49731445 36.85717773 C1.54502094 40.51415398 1.59736599 44.171037 1.65294075 47.82790184 C1.67333583 49.2237332 1.69205361 50.6195901 1.70907402 52.01546669 C1.73318077 53.96911102 1.76378046 55.92267197 1.79467773 57.8762207 C1.81022202 58.9887471 1.8257663 60.1012735 1.84178162 61.24751282 C1.88493745 64.09025286 1.88493745 64.09025286 3 67 C3.12781786 69.67394964 3.04391871 72.32095857 3 75 C0.04497254 70.5674588 -0.12304908 67.55394644 -0.11352539 62.32543945 C-0.11367142 61.652005 -0.11381744 60.97857056 -0.1139679 60.284729 C-0.11327175 58.06088021 -0.10549332 55.83711539 -0.09765625 53.61328125 C-0.09579101 52.07057236 -0.09436761 50.52786289 -0.09336853 48.9851532 C-0.08955169 44.92616132 -0.07972851 40.86720527 -0.06866455 36.80822754 C-0.05843252 32.66577641 -0.05386707 28.5233195 -0.04882812 24.38085938 C-0.0381055 16.25388799 -0.02051543 8.12695258 0 0 Z " fill="#E4D9BC" transform="translate(215,85)"/>
<path d="M0 0 C0.33 1.32 0.66 2.64 1 4 C0.01 4.495 0.01 4.495 -1 5 C-1.6545778 6.9485338 -1.6545778 6.9485338 -2.0625 9.25 C-2.22878906 10.06082031 -2.39507812 10.87164062 -2.56640625 11.70703125 C-2.89547403 13.44723654 -3.20281982 15.19156644 -3.5 16.9375 C-4 19 -4 19 -6 21 C-6.1546875 22.2375 -6.1546875 22.2375 -6.3125 23.5 C-6.539375 24.325 -6.76625 25.15 -7 26 C-10.27728249 27.86007925 -12.1659754 28 -16 28 C-16.66 27.67 -17.32 27.34 -18 27 C-18.25 24.25 -18.25 24.25 -18 21 C-16 19 -16 19 -14 17 C-13.06800964 14.34741206 -12.55375868 11.76879341 -12 9 C-11.34 9 -10.68 9 -10 9 C-10 8.01 -10 7.02 -10 6 C-7.58020341 4.99175142 -5.32899792 4.06397182 -2.75 3.5625 C-1.88375 3.2840625 -1.88375 3.2840625 -1 3 C-0.67 2.01 -0.34 1.02 0 0 Z " fill="#966930" transform="translate(134,101)"/>
<path d="M0 0 C0.66 0 1.32 0 2 0 C3.18920898 1.49707031 3.18920898 1.49707031 4.49609375 3.578125 C4.97240234 4.32707031 5.44871094 5.07601562 5.93945312 5.84765625 C6.43380859 6.64042969 6.92816406 7.43320313 7.4375 8.25 C8.41410005 9.79767366 9.39192777 11.34457345 10.37109375 12.890625 C10.80349365 13.58188477 11.23589355 14.27314453 11.68139648 14.98535156 C12.98888328 17.06773551 12.98888328 17.06773551 14.72680664 19.06933594 C15.35703735 20.02501465 15.35703735 20.02501465 16 21 C15.67 21.99 15.34 22.98 15 24 C14.67 22.68 14.34 21.36 14 20 C11.00007271 21.29144978 11.00007271 21.29144978 8 23 C6.76213216 26.71360353 7.43969369 27.57747373 9 31.0625 C10.1875 33.72265625 10.1875 33.72265625 11 36 C10.67 36.66 10.34 37.32 10 38 C6.37147329 32.82142304 3.27215359 27.90759932 1 22 C0.6390625 21.236875 0.278125 20.47375 -0.09375 19.6875 C-1.17929379 16.46830119 -1.06553642 14.12125752 -0.75 10.75 C-0.66234375 9.69296875 -0.5746875 8.6359375 -0.484375 7.546875 C-0.32453125 6.70640625 -0.1646875 5.8659375 0 5 C0.66 4.67 1.32 4.34 2 4 C1.34 3.67 0.68 3.34 0 3 C0 2.01 0 1.02 0 0 Z " fill="#C6AC72" transform="translate(668,87)"/>
<path d="M0 0 C0.495 0.70125 0.99 1.4025 1.5 2.125 C5.23477627 6.41999271 9.55142731 10.1838091 15 12 C16.78967404 12.09419337 18.58285563 12.12990998 20.375 12.125 C21.31085938 12.12757813 22.24671875 12.13015625 23.2109375 12.1328125 C25.90729747 12.00441441 28.37271509 11.60188709 31 11 C31 11.66 31 12.32 31 13 C28.11734851 13.96088383 26.32337729 14.11670941 23.33203125 14.09765625 C22.43935547 14.09443359 21.54667969 14.09121094 20.62695312 14.08789062 C19.23379883 14.07532227 19.23379883 14.07532227 17.8125 14.0625 C16.87212891 14.05798828 15.93175781 14.05347656 14.96289062 14.04882812 C12.64186288 14.03704626 10.32096356 14.02059558 8 14 C8 14.66 8 15.32 8 16 C6.70766393 17.37310707 5.37562854 18.71034824 4 20 C4.66 20.33 5.32 20.66 6 21 C1.20085398 20.70065689 -2.65869539 20.28944398 -6.22265625 16.86328125 C-7.92959117 14.63059635 -9.51702327 12.38651222 -11 10 C-10.67 9.34 -10.34 8.68 -10 8 C-9.236875 8.350625 -8.47375 8.70125 -7.6875 9.0625 C-4.95240621 10.32360884 -4.95240621 10.32360884 -2 9 C-1.19436362 6.89415562 -1.19436362 6.89415562 -0.8125 4.4375 C-0.57466797 3.19806641 -0.57466797 3.19806641 -0.33203125 1.93359375 C-0.22246094 1.29550781 -0.11289063 0.65742188 0 0 Z " fill="#B89A62" transform="translate(229,152)"/>
<path d="M0 0 C4.62 0 9.24 0 14 0 C14 30.36 14 60.72 14 92 C8.72 92 3.44 92 -2 92 C-6.5 86.9375 -6.5 86.9375 -8 83 C-7.505 82.01 -7.505 82.01 -7 81 C-6.34 81.33 -5.68 81.66 -5 82 C-4.57550138 83.33086055 -4.16014446 84.66464596 -3.75 86 C-2.8425 87.32 -1.935 88.64 -1 90 C5.93 90.495 5.93 90.495 13 91 C13 61.3 13 31.6 13 1 C9.04 1 5.08 1 1 1 C1 24.1 1 47.2 1 71 C0.34 71 -0.32 71 -1 71 C-2.625 69 -2.625 69 -4 67 C-3.505 66.01 -3.505 66.01 -3 65 C-2.34 65.33 -1.68 65.66 -1 66 C-0.67 44.22 -0.34 22.44 0 0 Z " fill="#EFE3CA" transform="translate(591,85)"/>
<path d="M0 0 C3.96 0 7.92 0 12 0 C12 29.7 12 59.4 12 90 C-2 90 -2 90 -4.9375 87.1875 C-6 84 -6 84 -5 81 C-4.67 82.32 -4.34 83.64 -4 85 C-3.34 85 -2.68 85 -2 85 C-1.505 84.01 -1.505 84.01 -1 83 C0.125 86.75 0.125 86.75 -1 89 C2.96 89 6.92 89 11 89 C11 59.96 11 30.92 11 1 C7.7 1 4.4 1 1 1 C1 24.1 1 47.2 1 71 C-0.485 71.495 -0.485 71.495 -2 72 C-2 71.34 -2 70.68 -2 70 C-1.34 70 -0.68 70 0 70 C0 46.9 0 23.8 0 0 Z " fill="#D3C186" transform="translate(592,86)"/>
<path d="M0 0 C3.96 0 7.92 0 12 0 C12 29.7 12 59.4 12 90 C7.71 90 3.42 90 -1 90 C-1.99 89.01 -2.98 88.02 -4 87 C-4 86.34 -4 85.68 -4 85 C-3.34 85 -2.68 85 -2 85 C-2 85.99 -2 86.98 -2 88 C2.29 88.33 6.58 88.66 11 89 C11 59.96 11 30.92 11 1 C8.36 1 5.72 1 3 1 C1.96966548 8.74767562 1.78494352 16.41273907 1.68359375 24.22265625 C1.66297758 25.57743394 1.64198005 26.93220587 1.62062073 28.28697205 C1.56588074 31.82302132 1.51626311 35.35912391 1.46777344 38.89526367 C1.41720337 42.51550951 1.36170419 46.13567959 1.30664062 49.75585938 C1.19964872 56.83717366 1.09807722 63.91855617 1 71 C0.67 71 0.34 71 0 71 C0 47.57 0 24.14 0 0 Z " fill="#B29665" transform="translate(715,86)"/>
<path d="M0 0 C0.33 0 0.66 0 1 0 C1 30.03 1 60.06 1 91 C5.29 91 9.58 91 14 91 C14 67.9 14 44.8 14 21 C15.65 22.65 17.3 24.3 19 26 C18.67 26.66 18.34 27.32 18 28 C17.34 27.34 16.68 26.68 16 26 C15.67 47.78 15.34 69.56 15 92 C10.05 92 5.1 92 0 92 C0 61.64 0 31.28 0 0 Z " fill="#FDFAE4" transform="translate(529,85)"/>
<path d="M0 0 C3.41567738 2.36469972 6.08613709 5.2614592 8.4375 8.6875 C8.4375 9.3475 8.4375 10.0075 8.4375 10.6875 C5.19478494 10.1284112 3.50692576 9.2742822 1.4375 6.6875 C1.4375 6.0275 1.4375 5.3675 1.4375 4.6875 C0.4475 4.6875 -0.5425 4.6875 -1.5625 4.6875 C-1.748125 5.986875 -1.93375 7.28625 -2.125 8.625 C-2.22941406 9.35589844 -2.33382812 10.08679688 -2.44140625 10.83984375 C-2.48136719 11.44957031 -2.52132812 12.05929688 -2.5625 12.6875 C-2.2325 13.0175 -1.9025 13.3475 -1.5625 13.6875 C-1.49070036 15.20678038 -1.47857993 16.72917482 -1.5 18.25 C-1.50902344 19.07628906 -1.51804687 19.90257813 -1.52734375 20.75390625 C-1.53894531 21.39199219 -1.55054688 22.03007813 -1.5625 22.6875 C-3.67867171 19.94892485 -5.51245909 17.14037611 -7.3125 14.1875 C-10.19319196 9.79408287 -12.82412206 7.86715385 -17.5625 5.6875 C-13.5625 4.6875 -13.5625 4.6875 -11.75 4.375 C-9.53439368 3.67866658 -8.06622146 2.75212986 -6.125 1.5 C-2.5625 -0.3125 -2.5625 -0.3125 0 0 Z " fill="#92652E" transform="translate(847.5625,95.3125)"/>
<path d="M0 0 C0.01213028 1.17937889 0.01213028 1.17937889 0.02450562 2.38258362 C0.10262422 9.81219896 0.18996621 17.24162277 0.28752708 24.6710062 C0.33735599 28.49002552 0.38368652 32.30901897 0.421875 36.12817383 C0.45889806 39.81765833 0.50530274 43.50691904 0.55806351 47.19621086 C0.57651745 48.59988393 0.59165822 50.00360481 0.60334396 51.40735054 C0.62036078 53.38177147 0.6505247 55.35606556 0.68115234 57.33032227 C0.69447601 58.45173111 0.70779968 59.57313995 0.7215271 60.72853088 C1.03541556 64.41605807 1.88122559 67.48051998 3 71 C2.34 71 1.68 71 1 71 C-1.40316291 67.39525564 -1.24312609 65.79310409 -1.22705078 61.5090332 C-1.22734283 60.8551059 -1.22763489 60.20117859 -1.22793579 59.5274353 C-1.2265437 57.36841511 -1.21098857 55.20974107 -1.1953125 53.05078125 C-1.19158193 51.55291431 -1.18873517 50.05504493 -1.18673706 48.55717468 C-1.17910403 44.61649833 -1.15945845 40.67596962 -1.1373291 36.73535156 C-1.11686353 32.71356198 -1.10773382 28.69174853 -1.09765625 24.66992188 C-1.07621218 16.7798802 -1.04208029 8.88995847 -1 1 C-4.96 1 -8.92 1 -13 1 C-13 23.44 -13 45.88 -13 69 C-13.33 69 -13.66 69 -14 69 C-14 46.23 -14 23.46 -14 0 C-3 -1 -3 -1 0 0 Z " fill="#F6EFD2" transform="translate(429,85)"/>
<path d="M0 0 C2.31 0.33 4.62 0.66 7 1 C7.33 3.97 7.66 6.94 8 10 C6.68 9.67 5.36 9.34 4 9 C4 10.65 4 12.3 4 14 C3.4225 13.67 2.845 13.34 2.25 13 C-0.19883862 11.72924102 -0.19883862 11.72924102 -4 12 C-4.33 13.98 -4.66 15.96 -5 18 C-5.99 18 -6.98 18 -8 18 C-8.12375 16.88625 -8.2475 15.7725 -8.375 14.625 C-8.6465813 10.96896323 -8.6465813 10.96896323 -11 9 C-10.45730469 8.68546875 -9.91460938 8.3709375 -9.35546875 8.046875 C-3.93281161 4.84458697 -3.93281161 4.84458697 0 0 Z " fill="#93662D" transform="translate(841,154)"/>
<path d="M0 0 C3.48749314 2.78999451 6.50157221 5.25235831 9 9 C7.84826645 11.46800047 6.95216435 13.04783565 5 15 C4.01 15 3.02 15 2 15 C2.495 15.78375 2.99 16.5675 3.5 17.375 C5 20 5 20 5 22 C2.6875 21.4375 2.6875 21.4375 0 20 C-2.14115387 16.01302384 -3 13.54765452 -3 9 C-3.66 8.67 -4.32 8.34 -5 8 C-4.34 8 -3.68 8 -3 8 C-2.87625 7.4225 -2.7525 6.845 -2.625 6.25 C-1.99351176 3.97664233 -1.11141809 2.0746471 0 0 Z " fill="#D8C680" transform="translate(581,145)"/>
<path d="M0 0 C4.95 0 9.9 0 15 0 C18.4375 3.5 18.4375 3.5 20 7 C19.67 7.66 19.34 8.32 19 9 C18.62875 8.34 18.2575 7.68 17.875 7 C16.09105222 4.64696955 16.09105222 4.64696955 12.8125 4.75 C11.884375 4.8325 10.95625 4.915 10 5 C10.33 4.01 10.66 3.02 11 2 C7.7 1.67 4.4 1.34 1 1 C1 30.7 1 60.4 1 91 C0.67 91 0.34 91 0 91 C0 60.97 0 30.94 0 0 Z " fill="#EDE3AF" transform="translate(530,85)"/>
<path d="M0 0 C1 3 1 3 0.0625 5.1875 C-0.288125 5.785625 -0.63875 6.38375 -1 7 C-1.66 7 -2.32 7 -3 7 C-3.24492188 7.5775 -3.48984375 8.155 -3.7421875 8.75 C-7.51168272 15.49294797 -14.9630664 20.2567886 -22 23 C-24.23046875 22.58984375 -24.23046875 22.58984375 -26 22 C-25.34 21.67 -24.68 21.34 -24 21 C-24 20.34 -24 19.68 -24 19 C-23.01 18.34 -22.02 17.68 -21 17 C-20.71125 16.319375 -20.4225 15.63875 -20.125 14.9375 C-19 13 -19 13 -16.375 12.25 C-15.59125 12.1675 -14.8075 12.085 -14 12 C-14 12.66 -14 13.32 -14 14 C-13.34 14 -12.68 14 -12 14 C-11.67 12.68 -11.34 11.36 -11 10 C-10.01 10 -9.02 10 -8 10 C-8.04125 8.88625 -8.0825 7.7725 -8.125 6.625 C-8 3 -8 3 -6 1 C-5.67 2.65 -5.34 4.3 -5 6 C-4.01 6 -3.02 6 -2 6 C-1.34 4.02 -0.68 2.04 0 0 Z " fill="#AE8C63" transform="translate(856,153)"/>
<path d="M0 0 C0.33 0 0.66 0 1 0 C1.13975939 8.91945895 1.24600167 17.83853413 1.31087303 26.75885391 C1.34202729 30.90213274 1.38420242 35.04465593 1.45263672 39.1875 C1.51840625 43.19465172 1.55382525 47.20108229 1.56926346 51.2087326 C1.58024783 52.72844529 1.60169501 54.24812386 1.63438034 55.76752472 C1.84871977 66.15577409 0.82590031 75.57378704 -6.51281738 83.66870117 C-7.9921875 84.921875 -7.9921875 84.921875 -10.875 86.75 C-11.84179688 87.38421875 -12.80859375 88.0184375 -13.8046875 88.671875 C-14.52914063 89.11015625 -15.25359375 89.5484375 -16 90 C-16.66 89.67 -17.32 89.34 -18 89 C-14.25 86 -14.25 86 -12 86 C-12 85.34 -12 84.68 -12 84 C-10.515 83.01 -10.515 83.01 -9 82 C-8.67 81.01 -8.34 80.02 -8 79 C-7.34 79 -6.68 79 -6 79 C-5.34 77.35 -4.68 75.7 -4 74 C-3.34 74 -2.68 74 -2 74 C-1.05560115 69.98981752 -0.84734053 66.21360981 -0.79467773 62.09838867 C-0.78477814 61.42466217 -0.77487854 60.75093567 -0.76467896 60.05679321 C-0.73325077 57.8438867 -0.708381 55.63095876 -0.68359375 53.41796875 C-0.66300806 51.87811241 -0.64201117 50.33826151 -0.62062073 48.79841614 C-0.56556682 44.75595525 -0.51608436 40.71344478 -0.46777344 36.67089844 C-0.41743621 32.54162206 -0.36181409 28.41241721 -0.30664062 24.28320312 C-0.19926324 16.18886266 -0.0977734 8.09446214 0 0 Z " fill="#F9F0C0" transform="translate(482,86)"/>
<path d="M0 0 C0.495 1.485 0.495 1.485 1 3 C-0.64446967 4.69430208 -2.30949594 6.35240214 -4 8 C-4.76183594 8.7734375 -4.76183594 8.7734375 -5.5390625 9.5625 C-13.10592305 16.73487967 -21.72176667 17.44140059 -31.73071289 17.35595703 C-38.70480458 17.14266301 -45.122714 16.39773833 -50.625 11.8125 C-51.07875 11.214375 -51.5325 10.61625 -52 10 C-50.5608866 10.28359887 -49.12374482 10.57721399 -47.6875 10.875 C-46.88699219 11.03742188 -46.08648437 11.19984375 -45.26171875 11.3671875 C-43 12 -43 12 -40 14 C-37.9082841 14.30657857 -37.9082841 14.30657857 -35.61328125 14.265625 C-34.75669922 14.26820313 -33.90011719 14.27078125 -33.01757812 14.2734375 C-32.12490234 14.26570312 -31.23222656 14.25796875 -30.3125 14.25 C-29.43916016 14.25773438 -28.56582031 14.26546875 -27.66601562 14.2734375 C-20.91283382 14.25326369 -14.76203154 13.84135436 -9 10 C-7.79549696 7.44816596 -7.79549696 7.44816596 -7 5 C-6.34 5 -5.68 5 -5 5 C-4.67 4.01 -4.34 3.02 -4 2 C-3.505 2.99 -3.505 2.99 -3 4 C-2.34 4 -1.68 4 -1 4 C-0.67 2.68 -0.34 1.36 0 0 Z " fill="#D1BD97" transform="translate(279,161)"/>
<path d="M0 0 C0.66 0 1.32 0 2 0 C2.53293835 1.74635165 3.05090663 3.49727652 3.5625 5.25 C3.85253906 6.22453125 4.14257812 7.1990625 4.44140625 8.203125 C5 11 5 11 4 15 C3.34 12.03 2.68 9.06 2 6 C1.34 6 0.68 6 0 6 C-1.51067441 10.51996999 -3.01592574 15.04153035 -4.5 19.5703125 C-5 21.08854167 -5.5 22.60677083 -6 24.125 C-6.2475 24.88425781 -6.495 25.64351562 -6.75 26.42578125 C-8.283653 31.06667912 -10.01028296 35.53498022 -12 40 C-12.33 40 -12.66 40 -13 40 C-13.33 37.03 -13.66 34.06 -14 31 C-12.68 30.34 -11.36 29.68 -10 29 C-10 27.02 -10 25.04 -10 23 C-9.34 23 -8.68 23 -8 23 C-7.896875 22.01 -7.79375 21.02 -7.6875 20 C-7.09191294 15.71702837 -5.61404973 12.00003629 -4 8 C-3.34 8 -2.68 8 -2 8 C-2.061875 6.8553125 -2.061875 6.8553125 -2.125 5.6875 C-2 3 -2 3 0 0 Z " fill="#B39471" transform="translate(137,97)"/>
<path d="M0 0 C5.94 0 11.88 0 18 0 C18.845625 2.43375 19.69125 4.8675 20.5625 7.375 C20.83263916 8.13989746 21.10277832 8.90479492 21.38110352 9.69287109 C21.97681999 11.44382449 22.49057928 13.22202181 23 15 C22.67 15.66 22.34 16.32 22 17 C17.42857143 9.71428571 17.42857143 9.71428571 18 5 C17.34 5 16.68 5 16 5 C15.67 4.34 15.34 3.68 15 3 C12.41394668 2.5316735 12.41394668 2.5316735 9.4375 2.375 C7.91962891 2.26285156 7.91962891 2.26285156 6.37109375 2.1484375 C5.19740234 2.07496094 5.19740234 2.07496094 4 2 C3.67 3.65 3.34 5.3 3 7 C2.401875 7.020625 1.80375 7.04125 1.1875 7.0625 C-1.36691343 7.88622839 -1.36691343 7.88622839 -2.6875 11.1875 C-3.91176893 14.40785957 -4.58220783 17.57410423 -5 21 C-5.66 21 -6.32 21 -7 21 C-5.62033134 13.4745346 -3.06378748 7.01446081 0 0 Z " fill="#C0A888" transform="translate(129,85)"/>
<path d="M0 0 C1.8828125 0.21484375 1.8828125 0.21484375 4 1 C6.09757588 4.76243506 7.26866018 9.08145023 6.66796875 13.37109375 C6.13263578 15.25339355 5.56845654 17.12743729 5 19 C5.66 19.66 6.32 20.32 7 21 C6.34 21.66 5.68 22.32 5 23 C-2.349525 10.37677003 -2.349525 10.37677003 -1.6875 5.875 C-1.460625 5.25625 -1.23375 4.6375 -1 4 C-0.814375 3.2575 -0.62875 2.515 -0.4375 1.75 C-0.293125 1.1725 -0.14875 0.595 0 0 Z " fill="#BE9E61" transform="translate(694,133)"/>
<path d="M0 0 C1.09847081 2.7726462 1.03489132 3.89943925 0.0390625 6.76953125 C-0.66089844 8.27580078 -0.66089844 8.27580078 -1.375 9.8125 C-3.37285279 14.3339563 -4.66474457 18.08292032 -5 23 C-1.7 23 1.6 23 5 23 C4.67 21.35 4.34 19.7 4 18 C4.99 18 5.98 18 7 18 C8.32 14.7 9.64 11.4 11 8 C12.17077037 12.6830815 11.52267921 13.88364744 9.625 18.1875 C9.16351563 19.25355469 8.70203125 20.31960937 8.2265625 21.41796875 C7 24 7 24 6 25 C3.46950598 25.07313567 0.96695163 25.09247527 -1.5625 25.0625 C-2.27341797 25.05798828 -2.98433594 25.05347656 -3.71679688 25.04882812 C-5.47790013 25.03700864 -7.23896036 25.01907263 -9 25 C-8.06630907 22.14453745 -7.12817599 19.29066146 -6.1875 16.4375 C-5.79594727 15.23770508 -5.79594727 15.23770508 -5.39648438 14.01367188 C-3.81339179 9.2253054 -2.05819351 4.60466715 0 0 Z " fill="#CAB49B" transform="translate(104,152)"/>
<path d="M0 0 C4.29 0 8.58 0 13 0 C13 0.33 13 0.66 13 1 C9.04 1 5.08 1 1 1 C1 24.1 1 47.2 1 71 C0.34 71 -0.32 71 -1 71 C-2.625 69 -2.625 69 -4 67 C-3.505 66.01 -3.505 66.01 -3 65 C-2.34 65.33 -1.68 65.66 -1 66 C-0.67 44.22 -0.34 22.44 0 0 Z " fill="#E7DEBB" transform="translate(591,85)"/>
<path d="M0 0 C2.63892097 2.52590509 4.82575789 4.99936735 6.8125 8.0625 C7.3178125 8.83980469 7.823125 9.61710937 8.34375 10.41796875 C8.8903125 11.27003906 9.436875 12.12210938 10 13 C10.94359375 14.44826172 10.94359375 14.44826172 11.90625 15.92578125 C16.86680183 23.6004055 16.86680183 23.6004055 18 27 C17.01 27 16.02 27 15 27 C14.67 25.35 14.34 23.7 14 22 C10.99969942 21.65373409 10.99969942 21.65373409 9.4375 23.5 C8.963125 23.995 8.48875 24.49 8 25 C7.34 25 6.68 25 6 25 C6.37125 24.319375 6.7425 23.63875 7.125 22.9375 C8.29958182 18.99426103 7.49599431 16.77560468 6 13 C5.01 12.34 4.02 11.68 3 11 C2.05078125 8.3984375 2.05078125 8.3984375 1.3125 5.375 C1.06113281 4.37210937 0.80976562 3.36921875 0.55078125 2.3359375 C0.36902344 1.56507812 0.18726563 0.79421875 0 0 Z " fill="#E1D49E" transform="translate(564,115)"/>
<path d="M0 0 C1 2 1 2 0.0625 5.125 C-0.288125 6.07375 -0.63875 7.0225 -1 8 C-0.34 8.66 0.32 9.32 1 10 C0.53722656 10.40992188 0.07445313 10.81984375 -0.40234375 11.2421875 C-2.15894265 13.17487578 -2.76579005 14.65747546 -3.5625 17.125 C-4.25390625 19.2578125 -4.25390625 19.2578125 -5 21 C-5.66 21.33 -6.32 21.66 -7 22 C-8.05352843 24.30965848 -9.05719096 26.6429774 -10 29 C-10.33 29 -10.66 29 -11 29 C-11.35662108 24.00730491 -10.24146027 21.39671052 -8 17 C-7.48865762 14.6573384 -7.07359489 12.32498614 -6.72265625 9.953125 C-6 8 -6 8 -3.93359375 6.734375 C-3.29550781 6.49203125 -2.65742187 6.2496875 -2 6 C-2 4.35 -2 2.7 -2 1 C-1.34 0.67 -0.68 0.34 0 0 Z " fill="#956F3F" transform="translate(112,139)"/>
<path d="M0 0 C0.33 0 0.66 0 1 0 C1.01030746 0.79513504 1.02061493 1.59027008 1.03123474 2.40950012 C1.12917088 9.89915744 1.23167981 17.38873153 1.33933926 24.87825489 C1.39452767 28.72878482 1.44794113 32.57932241 1.49731445 36.42993164 C1.54501824 40.14526156 1.59736321 43.86049964 1.65294075 47.57571983 C1.67333705 48.99388024 1.69205463 50.41206581 1.70907402 51.83027077 C1.73317806 53.81504721 1.7637786 55.79974155 1.79467773 57.78442383 C1.81022202 58.91471512 1.8257663 60.04500641 1.84178162 61.20954895 C1.88252967 64.08428342 1.88252967 64.08428342 3 67 C3.12781786 69.67394964 3.04391871 72.32095857 3 75 C0.04497254 70.5674588 -0.12304908 67.55394644 -0.11352539 62.32543945 C-0.11367142 61.652005 -0.11381744 60.97857056 -0.1139679 60.284729 C-0.11327175 58.06088021 -0.10549332 55.83711539 -0.09765625 53.61328125 C-0.09579101 52.07057236 -0.09436761 50.52786289 -0.09336853 48.9851532 C-0.08955169 44.92616132 -0.07972851 40.86720527 -0.06866455 36.80822754 C-0.05843252 32.66577641 -0.05386707 28.5233195 -0.04882812 24.38085938 C-0.03810551 16.25388982 -0.02103907 8.12694937 0 0 Z " fill="#F1E3CE" transform="translate(215,85)"/>
<path d="M0 0 C0.433125 0.495 0.86625 0.99 1.3125 1.5 C2.99740483 3.33218192 2.99740483 3.33218192 6 3 C6 4.65 6 6.3 6 8 C8.96731398 6.16343011 8.96731398 6.16343011 11 4 C12.5625 6.375 12.5625 6.375 14 9 C13 11 13 11 11.203125 11.68359375 C7.52996534 12.211122 4.54225625 11.00363927 1 10 C1 9.34 1 8.68 1 8 C0.34 8 -0.32 8 -1 8 C-1 7.34 -1 6.68 -1 6 C-1.66 5.67 -2.32 5.34 -3 5 C-2.01 3.35 -1.02 1.7 0 0 Z " fill="#A1793B" transform="translate(781,152)"/>
<path d="M0 0 C0 0.33 0 0.66 0 1 C-0.95253662 1.05160278 -0.95253662 1.05160278 -1.92431641 1.10424805 C-4.82649806 1.27494905 -7.72516246 1.48089115 -10.625 1.6875 C-11.62402344 1.74099609 -12.62304688 1.79449219 -13.65234375 1.84960938 C-20.26440939 2.35317729 -23.25268934 3.41287467 -28 8 C-30.1953125 8.63671875 -30.1953125 8.63671875 -32.125 8.6875 C-35.49245755 8.95906916 -37.21065726 9.25666079 -40 11 C-28.85666721 -0.78009466 -15.18066442 -0.45541993 0 0 Z " fill="#C4AE8D" transform="translate(825,84)"/>
<path d="M0 0 C14.19 0 28.38 0 43 0 C44.69057475 3.38114949 45.45815467 5.6299825 46.125 9.25 C46.37636719 10.58804688 46.37636719 10.58804688 46.6328125 11.953125 C46.75398438 12.62859375 46.87515625 13.3040625 47 14 C43.6461109 9.66291601 42 6.58879656 42 1 C28.14 1 14.28 1 0 1 C0 0.67 0 0.34 0 0 Z " fill="#99774D" transform="translate(117,154)"/>
<path d="M0 0 C2.96844435 -0.35338623 5.15598218 -0.5417682 7.734375 1.11328125 C9.20348819 2.35503168 10.60704814 3.67337918 12 5 C11.01 5.33 10.02 5.66 9 6 C8.360625 6.37125 7.72125 6.7425 7.0625 7.125 C5 8 5 8 2.9375 7.8125 C0.74244718 6.89199398 -0.44866281 5.78403777 -2 4 C-1.34 4 -0.68 4 0 4 C0 2.68 0 1.36 0 0 Z " fill="#956830" transform="translate(836,90)"/>
<path d="M0 0 C1 3 1 3 0.0625 5.1875 C-0.288125 5.785625 -0.63875 6.38375 -1 7 C-1.66 7 -2.32 7 -3 7 C-3.20625 7.53625 -3.4125 8.0725 -3.625 8.625 C-5.57996944 12.0017654 -8.18223695 14.30474839 -11 17 C-11.66 16.67 -12.32 16.34 -13 16 C-12.34 14.02 -11.68 12.04 -11 10 C-10.01 10 -9.02 10 -8 10 C-8.04125 8.88625 -8.0825 7.7725 -8.125 6.625 C-8 3 -8 3 -6 1 C-5.67 2.65 -5.34 4.3 -5 6 C-4.01 6 -3.02 6 -2 6 C-1.34 4.02 -0.68 2.04 0 0 Z " fill="#B79773" transform="translate(856,153)"/>
<path d="M0 0 C0.99 0 1.98 0 3 0 C3 0.66 3 1.32 3 2 C3.99 2.33 4.98 2.66 6 3 C6 5.31 6 7.62 6 10 C5.34 9.34 4.68 8.68 4 8 C3.34 9.32 2.68 10.64 2 12 C1.34 12 0.68 12 0 12 C-1.85274014 8.87350101 -2.37198336 6.62683775 -2 3 C-1.34 2.01 -0.68 1.02 0 0 Z " fill="#936225" transform="translate(846,100)"/>
<path d="M0 0 C3.48221175 0.17411059 5.65214817 0.68551124 8.75 2.1875 C8.42 3.5075 8.09 4.8275 7.75 6.1875 C4.97315269 7.2555182 3.58977687 7.15225091 0.625 6.5 C-2.25 5.1875 -2.25 5.1875 -3.625 3.0625 C-3.83125 2.44375 -4.0375 1.825 -4.25 1.1875 C-3.25 0.1875 -3.25 0.1875 0 0 Z " fill="#986D3A" transform="translate(830.25,93.8125)"/>
<path d="M0 0 C0.78375 0.268125 1.5675 0.53625 2.375 0.8125 C4.169375 1.4003125 4.169375 1.4003125 6 2 C6.72703125 2.26425781 7.4540625 2.52851563 8.203125 2.80078125 C14.89760186 5.07906289 20.96476993 5.32637665 28 5 C24.29330941 8.70669059 18.03119908 8.00332329 12.9609375 8.07617188 C8.43964562 7.900544 4.21687417 6.55173956 0 5 C0.99 4.34 1.98 3.68 3 3 C2.01 2.01 1.02 1.02 0 0 Z " fill="#C7AF8E" transform="translate(796,159)"/>
<path d="M0 0 C1.05329452 2.69746158 1.02451536 3.91905306 0.171875 6.734375 C-3.69569597 14.93702552 -8.27346336 19.32558282 -16 24 C-16.66 23.67 -17.32 23.34 -18 23 C-14.25 20 -14.25 20 -12 20 C-12 19.34 -12 18.68 -12 18 C-11.01 17.34 -10.02 16.68 -9 16 C-8.67 15.01 -8.34 14.02 -8 13 C-7.34 13 -6.68 13 -6 13 C-5.34 11.35 -4.68 9.7 -4 8 C-3.34 8 -2.68 8 -2 8 C-1.855625 7.236875 -1.71125 6.47375 -1.5625 5.6875 C-1 3 -1 3 0 0 Z " fill="#F9F6D1" transform="translate(482,152)"/>
<path d="M0 0 C1.5 1.375 1.5 1.375 3 3 C3 3.66 3 4.32 3 5 C6.465 4.505 6.465 4.505 10 4 C10 6.33333333 10 8.66666667 10 11 C10.31043992 12.38034893 10.64646577 13.75505487 11 15.125 C11.185625 15.84945312 11.37125 16.57390625 11.5625 17.3203125 C11.706875 17.87460938 11.85125 18.42890625 12 19 C9.01258501 16.21861363 7.04400657 13.51569131 5 10 C3.6815201 8.20098977 2.34568292 6.41826505 0.98828125 4.6484375 C0 3 0 3 0 0 Z " fill="#D5C39E" transform="translate(700,156)"/>
<path d="M0 0 C0.66 0.33 1.32 0.66 2 1 C2 1.66 2 2.32 2 3 C3.98 3 5.96 3 8 3 C8 3.33 8 3.66 8 4 C7.39414062 4.14695312 6.78828125 4.29390625 6.1640625 4.4453125 C-0.64375789 6.26771365 -6.12651383 9.13849526 -12 13 C-10.25 7.25 -10.25 7.25 -8 5 C-5.07658794 3.6507329 -3.24792684 3 0 3 C0 2.01 0 1.02 0 0 Z " fill="#C3AB8A" transform="translate(804,94)"/>
<path d="M0 0 C9.71614177 -0.14973506 19.31629705 0.30386731 29 1 C25.16257428 3.54481916 21.18269584 3.29625422 16.75 3.25 C16.02425781 3.25773438 15.29851562 3.26546875 14.55078125 3.2734375 C9.40195444 3.25508161 4.95089848 2.4113421 0 1 C0 0.67 0 0.34 0 0 Z " fill="#F0ECBD" transform="translate(433,175)"/>
<path d="M0 0 C3.05936637 3.75467691 5 7.08113061 5 12 C-0.28 12 -5.56 12 -11 12 C-10.67 10.68 -10.34 9.36 -10 8 C-9.34 8.33 -8.68 8.66 -8 9 C-6.29636178 9.22622081 -4.58671299 9.40888473 -2.875 9.5625 C-1.96492187 9.64628906 -1.05484375 9.73007813 -0.1171875 9.81640625 C0.93082031 9.90728516 0.93082031 9.90728516 2 10 C1.505 8.63875 1.505 8.63875 1 7.25 C0 4 0 4 0 0 Z " fill="#CDBA9E" transform="translate(175,165)"/>
<path d="M0 0 C0.43054688 0.57492188 0.86109375 1.14984375 1.3046875 1.7421875 C2.38986697 3.18742652 3.47812424 4.63036281 4.5703125 6.0703125 C5.08335937 6.74835938 5.59640625 7.42640625 6.125 8.125 C6.90230469 9.14980469 6.90230469 9.14980469 7.6953125 10.1953125 C9 12 9 12 10 14 C8.68 13.34 7.36 12.68 6 12 C5.67 12.99 5.34 13.98 5 15 C3.68 15 2.36 15 1 15 C0 12 0 12 0.5 9.1875 C1.02832877 5.81940406 0.70974071 3.31212333 0 0 Z " fill="#C4AA81" transform="translate(786,145)"/>
<path d="M0 0 C1.32 0 2.64 0 4 0 C4.36351562 1.19496094 4.36351562 1.19496094 4.734375 2.4140625 C6.5656397 8.20367628 8.25846232 13.18945156 12 18 C11.67 18.66 11.34 19.32 11 20 C0 5.1994382 0 5.1994382 0 0 Z " fill="#EBE3B7" transform="translate(546,108)"/>
<path d="M0 0 C2.65647485 2.65647485 3.32092773 5.27309248 4.5625 8.8125 C4.99691406 10.03582031 5.43132812 11.25914062 5.87890625 12.51953125 C6.79354998 15.35906981 7.50245842 18.0650637 8 21 C7.01 20.34 6.02 19.68 5 19 C5 18.34 5 17.68 5 17 C4.34 17 3.68 17 3 17 C1.89294352 14.78588704 1.7337884 13.20477815 1.5 10.75 C1.13222395 7.13645434 0.64202592 3.57700157 0 0 Z " fill="#CEB99A" transform="translate(167,143)"/>
<path d="M0 0 C1.98 0 3.96 0 6 0 C6 0.66 6 1.32 6 2 C7.65 2.33 9.3 2.66 11 3 C11.12375 4.0209375 11.12375 4.0209375 11.25 5.0625 C11.93637943 7.75081943 12.69776188 9.30696843 14.125 11.625 C14.74375 12.73875 15.3625 13.8525 16 15 C15.67 15.99 15.34 16.98 15 18 C14.5875 17.19175781 14.175 16.38351563 13.75 15.55078125 C9.96561512 8.54797976 7.10914712 4.6169345 0 1 C0 0.67 0 0.34 0 0 Z " fill="#CDB89C" transform="translate(830,100)"/>
<path d="M0 0 C2.9375 1.25 2.9375 1.25 6 3 C6.33 4.32 6.66 5.64 7 7 C3.7 7 0.4 7 -3 7 C-3 5.35 -3 3.7 -3 2 C-2.01 1.34 -1.02 0.68 0 0 Z " fill="#905F27" transform="translate(102,168)"/>
<path d="M0 0 C0.33 0.99 0.66 1.98 1 3 C-1.76780435 5.85167721 -4.59671945 8.60380787 -7.5625 11.25 C-8.39974609 12.00023437 -8.39974609 12.00023437 -9.25390625 12.765625 C-11.16398128 14.11592413 -12.71532318 14.5800594 -15 15 C-13.06745228 12.9754262 -11.36841312 11.57894208 -9 10 C-7.79549696 7.44816596 -7.79549696 7.44816596 -7 5 C-6.34 5 -5.68 5 -5 5 C-4.67 4.01 -4.34 3.02 -4 2 C-3.67 2.66 -3.34 3.32 -3 4 C-2.34 4 -1.68 4 -1 4 C-0.67 2.68 -0.34 1.36 0 0 Z " fill="#DCCDAC" transform="translate(279,161)"/>
<path d="M0 0 C0.66 0 1.32 0 2 0 C2.2475 0.804375 2.495 1.60875 2.75 2.4375 C3.1625 3.283125 3.575 4.12875 4 5 C4.63808594 5.11601562 5.27617188 5.23203125 5.93359375 5.3515625 C8 6 8 6 9.30078125 8.21484375 C9.63464844 9.11332031 9.96851563 10.01179687 10.3125 10.9375 C10.65925781 11.83339844 11.00601563 12.72929687 11.36328125 13.65234375 C12 16 12 16 11 18 C0 2.64325843 0 2.64325843 0 0 Z " fill="#E4DBAE" transform="translate(567,142)"/>
<path d="M0 0 C4.10600329 3.91090162 6.96175825 8.24744307 10 13 C10.9590625 14.4540625 10.9590625 14.4540625 11.9375 15.9375 C12.288125 16.618125 12.63875 17.29875 13 18 C12.67 18.66 12.34 19.32 12 20 C10 19 10 19 9.1875 16.625 C8.25157106 13.79356653 8.25157106 13.79356653 5.5625 12.875 C1.34868171 9.79171832 1.03032766 4.93384548 0 0 Z " fill="#EEE7C4" transform="translate(564,115)"/>
<path d="M0 0 C0.92232422 0.63228516 0.92232422 0.63228516 1.86328125 1.27734375 C3.07564453 2.09912109 3.07564453 2.09912109 4.3125 2.9375 C5.11300781 3.48277344 5.91351563 4.02804688 6.73828125 4.58984375 C10.3621687 6.84929689 13.19342336 7.13645637 17.375 7.125 C18.31085938 7.12757813 19.24671875 7.13015625 20.2109375 7.1328125 C22.90729747 7.00441441 25.37271509 6.60188709 28 6 C28 6.66 28 7.32 28 8 C21.90537362 10.03154213 14.35146481 10.07667723 8 9 C4.56023869 7.22912558 2.15201388 5.22437334 0 2 C0 1.34 0 0.68 0 0 Z " fill="#E7D9C0" transform="translate(232,157)"/>
<path d="M0 0 C1.57432497 3.14864995 0.71895552 5.64487425 0 9 C-0.99 9.66 -1.98 10.32 -3 11 C-4.07136051 13.30144109 -5.07989717 15.6340213 -6 18 C-6.33 18 -6.66 18 -7 18 C-7.5497272 12.36529617 -5.95047835 9.61012242 -3 5 C-2.34 5 -1.68 5 -1 5 C-0.67 3.35 -0.34 1.7 0 0 Z " fill="#8E6738" transform="translate(108,150)"/>
<path d="M0 0 C2 3 2 3 1.875 6 C1 9 1 9 -0.75 10.875 C-3.36304771 12.18152386 -5.11533524 12.24038873 -8 12 C-6.625 10 -6.625 10 -5 8 C-4.34 8 -3.68 8 -3 8 C-1.92474806 5.34771188 -0.90543849 2.71631546 0 0 Z " fill="#F5EFC0" transform="translate(468,151)"/>
<path d="M0 0 C0.33 0 0.66 0 1 0 C1.35102041 10.35510204 1.35102041 10.35510204 -2.5 14.6875 C-2.995 15.120625 -3.49 15.55375 -4 16 C-4.66 16.66 -5.32 17.32 -6 18 C-5.31583566 13.82423832 -3.98634991 10.11919593 -2.4375 6.1875 C-1.75494141 4.44533203 -1.75494141 4.44533203 -1.05859375 2.66796875 C-0.70925781 1.78753906 -0.35992187 0.90710938 0 0 Z " fill="#BFA887" transform="translate(121,106)"/>
<path d="M0 0 C0.61875 0.804375 1.2375 1.60875 1.875 2.4375 C3.74164041 5.03874519 3.74164041 5.03874519 6 6 C6 6.66 6 7.32 6 8 C6.66 8 7.32 8 8 8 C8 8.66 8 9.32 8 10 C8.66 10 9.32 10 10 10 C10.66 11.98 11.32 13.96 12 16 C8.46735557 14.5417119 6.64017606 12.69176737 4.3125 9.6875 C3.71050781 8.92824219 3.10851562 8.16898438 2.48828125 7.38671875 C0.91884486 4.86985358 0.38752818 2.91937893 0 0 Z " fill="#D3C0A2" transform="translate(774,152)"/>
<path d="M0 0 C13.5470852 -1.0735426 13.5470852 -1.0735426 17.109375 1.55859375 C18.4375 3.5 18.4375 3.5 20 7 C19.67 7.66 19.34 8.32 19 9 C18.62875 8.34 18.2575 7.68 17.875 7 C16.09105222 4.64696955 16.09105222 4.64696955 12.8125 4.75 C11.884375 4.8325 10.95625 4.915 10 5 C10.33 4.01 10.66 3.02 11 2 C7.37 1.67 3.74 1.34 0 1 C0 0.67 0 0.34 0 0 Z " fill="#EFE6BB" transform="translate(530,85)"/>
<path d="M0 0 C0.66 0.33 1.32 0.66 2 1 C1.01 1.33 0.02 1.66 -1 2 C-1 2.66 -1 3.32 -1 4 C-5.01434472 7.79132557 -7.86033656 8.26303703 -13.375 8.25 C-15.25076302 8.1861054 -17.12632538 8.10914609 -19 8 C-19 7.67 -19 7.34 -19 7 C-18.07380859 6.87044922 -18.07380859 6.87044922 -17.12890625 6.73828125 C-11.24889256 5.76275386 -6.85023197 4.11934348 -1.8125 0.92578125 C-1.214375 0.62027344 -0.61625 0.31476563 0 0 Z " fill="#EDE7A6" transform="translate(471,168)"/>
<path d="M0 0 C2.64 0.33 5.28 0.66 8 1 C7.01 1.33 6.02 1.66 5 2 C5 2.66 5 3.32 5 4 C4.01 4 3.02 4 2 4 C2 5.65 2 7.3 2 9 C1.01 9.495 1.01 9.495 0 10 C-1.60339848 6.88228073 -2.18974141 5.60988311 -1.125 2.1875 C-0.75375 1.465625 -0.3825 0.74375 0 0 Z " fill="#926528" transform="translate(112,152)"/>
<path d="M0 0 C0.90105469 0.01804687 1.80210937 0.03609375 2.73046875 0.0546875 C3.41753906 0.07789062 4.10460937 0.10109375 4.8125 0.125 C5.10125 0.764375 5.39 1.40375 5.6875 2.0625 C6.64073451 4.27706079 6.64073451 4.27706079 8.8125 5.125 C8.17183594 4.99222656 7.53117188 4.85945313 6.87109375 4.72265625 C1.86266007 3.70006994 -3.11861794 2.78615853 -8.1875 2.125 C-4.87379 -0.08414 -3.8428979 -0.09981553 0 0 Z " fill="#B89A78" transform="translate(821.1875,94.875)"/>
<path d="M0 0 C0 0.66 0 1.32 0 2 C0.66 2.33 1.32 2.66 2 3 C1.34 3 0.68 3 0 3 C0 3.66 0 4.32 0 5 C-2.91482778 5.80967438 -4.46113217 6.21845993 -7.3125 5.0625 C-7.869375 4.711875 -8.42625 4.36125 -9 4 C-9 3.34 -9 2.68 -9 2 C-3.375 0 -3.375 0 0 0 Z " fill="#A67538" transform="translate(799,164)"/>
<path d="M0 0 C4.29 0 8.58 0 13 0 C13.33 1.32 13.66 2.64 14 4 C14.99 4.33 15.98 4.66 17 5 C15.02 5.99 15.02 5.99 13 7 C12.67 5.68 12.34 4.36 12 3 C8.37 2.34 4.74 1.68 1 1 C1 2.98 1 4.96 1 7 C0.67 7 0.34 7 0 7 C0 4.69 0 2.38 0 0 Z " fill="#BDA871" transform="translate(654,86)"/>
<path d="M0 0 C4.54075781 4.14010271 7.71842138 8.82390176 11 14 C10.67 14.66 10.34 15.32 10 16 C9.01 15.67 8.02 15.34 7 15 C5.8125 11.9375 5.8125 11.9375 5 9 C3.35 9 1.7 9 0 9 C0 8.34 0 7.68 0 7 C0.99 7 1.98 7 3 7 C2.505 6.21625 2.01 5.4325 1.5 4.625 C0 2 0 2 0 0 Z " fill="#DED1AD" transform="translate(684,111)"/>
<path d="M0 0 C2.784293 2.784293 2.94910069 5.886863 3.625 9.625 C3.7590625 10.33140625 3.893125 11.0378125 4.03125 11.765625 C4.36110025 13.50911918 4.68146056 15.25440389 5 17 C3.35 16.67 1.7 16.34 0 16 C0.29296875 13.94921875 0.5859375 11.8984375 0.87890625 9.84765625 C0.91886719 9.23792969 0.95882812 8.62820312 1 8 C0.67 7.67 0.34 7.34 0 7 C-0.04092937 4.66702567 -0.04241723 2.33294775 0 0 Z " fill="#B49469" transform="translate(155,110)"/>
<path d="M0 0 C5.40569395 0.34875445 5.40569395 0.34875445 8 1 C9.25 2.875 9.25 2.875 10 5 C12.03317007 6.73425773 12.03317007 6.73425773 14 8 C10.0397381 7.43726296 7.47032673 6.26476935 4.1875 4 C3.39730469 3.46375 2.60710938 2.9275 1.79296875 2.375 C1.20128906 1.92125 0.60960937 1.4675 0 1 C0 0.67 0 0.34 0 0 Z " fill="#CDBC9E" transform="translate(786,168)"/>
<path d="M0 0 C0.66 0 1.32 0 2 0 C2.53293835 1.74635165 3.05090663 3.49727652 3.5625 5.25 C3.85253906 6.22453125 4.14257812 7.1990625 4.44140625 8.203125 C5 11 5 11 4 15 C3.34 12.03 2.68 9.06 2 6 C1.34 6 0.68 6 0 6 C-0.33 6.66 -0.66 7.32 -1 8 C-0.67 5.36 -0.34 2.72 0 0 Z " fill="#D7C4A8" transform="translate(137,97)"/>
<path d="M0 0 C1.32 0.99 2.64 1.98 4 3 C3.401875 3.45375 2.80375 3.9075 2.1875 4.375 C-0.95224329 8.14269194 -1.81697587 12.30375268 -3 17 C-3.66 17 -4.32 17 -5 17 C-5 15.68 -5 14.36 -5 13 C-4.34 13 -3.68 13 -3 13 C-3.0928125 11.7315625 -3.0928125 11.7315625 -3.1875 10.4375 C-2.95984372 6.26380157 -1.79792186 3.74567053 0 0 Z " fill="#936D40" transform="translate(127,93)"/>
<path d="M0 0 C0.33 0 0.66 0 1 0 C1.74713783 6.72424044 -0.48243563 12.27281068 -4 18 C-4.99 18.33 -5.98 18.66 -7 19 C-5.75273311 15.77789388 -4.37842171 12.63858947 -2.9375 9.5 C-1.52078693 6.34531178 -0.44612529 3.45747102 0 0 Z " fill="#D8C6AF" transform="translate(847,136)"/>
<path d="M0 0 C4.15983896 3.80328133 7.49856366 7.91197205 10 13 C10 13.99 10 14.98 10 16 C9.01524786 14.90081184 8.03739527 13.7954398 7.0625 12.6875 C6.51722656 12.07261719 5.97195313 11.45773438 5.41015625 10.82421875 C4 9 4 9 3 6 C2.01 5.34 1.02 4.68 0 4 C0 2.68 0 1.36 0 0 Z " fill="#F0EACA" transform="translate(553,99)"/>
<path d="M0 0 C1.38718056 4.31875549 0.03889802 6.00062312 -2 10 C-2.7136724 13.73771834 -2.7136724 13.73771834 -3 17 C-3.99 17.33 -4.98 17.66 -6 18 C-4.83805848 11.53287812 -2.8751252 5.90377651 0 0 Z " fill="#D5C2A7" transform="translate(113,128)"/>
<path d="M0 0 C0.8971875 0.309375 0.8971875 0.309375 1.8125 0.625 C-0.03008246 2.55363714 -1.53628977 3.54509594 -4.20507812 3.87255859 C-6.62177459 3.92005495 -9.02148212 3.88611304 -11.4375 3.8125 C-12.27796875 3.79896484 -13.1184375 3.78542969 -13.984375 3.77148438 C-16.05235938 3.73623464 -18.12001271 3.6824302 -20.1875 3.625 C-20.1875 3.295 -20.1875 2.965 -20.1875 2.625 C-19.13949219 2.57601562 -18.09148437 2.52703125 -17.01171875 2.4765625 C-15.63278646 2.40151857 -14.2538815 2.32597143 -12.875 2.25 C-12.18470703 2.2190625 -11.49441406 2.188125 -10.78320312 2.15625 C-6.86693576 1.92922001 -3.42158009 -0.58655659 0 0 Z " fill="#EBE4A7" transform="translate(462.1875,163.375)"/>
<path d="M0 0 C0.66 0 1.32 0 2 0 C3.5078125 1.96875 3.5078125 1.96875 5.125 4.5 C5.66382813 5.3353125 6.20265625 6.170625 6.7578125 7.03125 C7.16773438 7.6809375 7.57765625 8.330625 8 9 C7.67 9.66 7.34 10.32 7 11 C5.35 10.67 3.7 10.34 2 10 C2 8.02 2 6.04 2 4 C1.34 3.67 0.68 3.34 0 3 C0 2.01 0 1.02 0 0 Z " fill="#DED0AD" transform="translate(668,87)"/>
<path d="M0 0 C0 0.99 0 1.98 0 3 C-3.84837573 6.62846854 -7.47422612 8.88774338 -12.8125 9.125 C-13.534375 9.08375 -14.25625 9.0425 -15 9 C-11.56448701 6.70965801 -7.99166802 5.00773438 -4.27734375 3.21875 C-1.88877494 2.08197469 -1.88877494 2.08197469 0 0 Z " fill="#D7C3AA" transform="translate(839,155)"/>
<path d="M0 0 C0.66 0.33 1.32 0.66 2 1 C0.64096145 5.57131149 -0.98688269 6.65085816 -5 9 C-6.80796103 11.56610666 -6.80796103 11.56610666 -8 14 C-8.33 13.01 -8.66 12.02 -9 11 C-7.12890625 8.30078125 -7.12890625 8.30078125 -4.5625 5.3125 C-3.71816406 4.31863281 -2.87382813 3.32476562 -2.00390625 2.30078125 C-1.01197266 1.16189453 -1.01197266 1.16189453 0 0 Z " fill="#DECFB8" transform="translate(783,95)"/>
<path d="M0 0 C2.97 0 5.94 0 9 0 C8.67 1.32 8.34 2.64 8 4 C4.25 5.125 4.25 5.125 2 4 C2 3.34 2 2.68 2 2 C1.34 2 0.68 2 0 2 C0 1.34 0 0.68 0 0 Z " fill="#966730" transform="translate(830,96)"/>
<path d="M0 0 C9.59453303 1.55808656 9.59453303 1.55808656 13 6 C3.40546697 4.44191344 3.40546697 4.44191344 0 0 Z " fill="#D5C5A3" transform="translate(227,171)"/>
<path d="M0 0 C1.953125 0.6484375 1.953125 0.6484375 4 2 C4.609375 4.6015625 4.609375 4.6015625 4.75 7.625 C4.80671875 8.62789062 4.8634375 9.63078125 4.921875 10.6640625 C4.94765625 11.43492188 4.9734375 12.20578125 5 13 C2.94876752 10.94876752 2.35852882 9.72994937 1.375 7.0625 C0.98441406 6.02802734 0.98441406 6.02802734 0.5859375 4.97265625 C0 3 0 3 0 0 Z " fill="#CDB999" transform="translate(142,112)"/>
<path d="M0 0 C3.63 0 7.26 0 11 0 C10.67 0.99 10.34 1.98 10 3 C8.72125 2.95875 7.4425 2.9175 6.125 2.875 C3.98128508 2.75787127 3.98128508 2.75787127 2 3 C1.34 3.66 0.68 4.32 0 5 C0 3.35 0 1.7 0 0 Z " fill="#EFEAA5" transform="translate(471,86)"/>
<path d="M0 0 C1.32 0.33 2.64 0.66 4 1 C3.67 1.99 3.34 2.98 3 4 C2.01 4 1.02 4 0 4 C-0.33 4.99 -0.66 5.98 -1 7 C-1.99 6.67 -2.98 6.34 -4 6 C-3.34 4.68 -2.68 3.36 -2 2 C-1.34 2 -0.68 2 0 2 C0 1.34 0 0.68 0 0 Z " fill="#B7914F" transform="translate(237,166)"/>
<path d="M0 0 C0.33 0 0.66 0 1 0 C1 2.64 1 5.28 1 8 C-4.2734375 11.22265625 -4.2734375 11.22265625 -6 12 C-6.66 11.67 -7.32 11.34 -8 11 C-7.236875 10.484375 -6.47375 9.96875 -5.6875 9.4375 C-2.38424393 6.44152356 -1.51374274 4.14287486 0 0 Z " fill="#E5D4B5" transform="translate(268,151)"/>
<path d="M0 0 C3.88056075 1.46248114 5.04133478 3.31854481 6.8125 7 C7.25207031 7.886875 7.69164062 8.77375 8.14453125 9.6875 C8.56798828 10.8321875 8.56798828 10.8321875 9 12 C8.67 12.66 8.34 13.32 8 14 C4.39363961 9.53174216 1.41963409 5.67853635 0 0 Z " fill="#F4EDD4" transform="translate(558,128)"/>
<path d="M0 0 C0.99 0 1.98 0 3 0 C2.25 7.75 2.25 7.75 0 10 C-0.19412181 8.52168779 -0.38012131 7.04230684 -0.5625 5.5625 C-0.66691406 4.73878906 -0.77132812 3.91507813 -0.87890625 3.06640625 C-0.91886719 2.38449219 -0.95882812 1.70257813 -1 1 C-0.67 0.67 -0.34 0.34 0 0 Z " fill="#AF906A" transform="translate(124,127)"/>
<path d="M0 0 C1.43410153 3.78819273 0.51009497 6.06521279 -0.9375 9.75 C-1.31777344 10.73484375 -1.69804687 11.7196875 -2.08984375 12.734375 C-2.39019531 13.48203125 -2.69054687 14.2296875 -3 15 C-3.94314127 11.58389775 -4.08065117 8.54865136 -4 5 C-3.34 5 -2.68 5 -2 5 C-1.34 3.35 -0.68 1.7 0 0 Z " fill="#DBCAB4" transform="translate(131,115)"/>
<path d="M0 0 C5.36668951 8.05003427 5.36668951 8.05003427 4.58203125 12.22265625 C4.38996094 12.80917969 4.19789063 13.39570312 4 14 C3.3490741 12.75264433 2.70448331 11.50198168 2.0625 10.25 C1.70285156 9.55390625 1.34320312 8.8578125 0.97265625 8.140625 C0.03271539 6.07200013 -0.62817359 4.24037176 -1 2 C-0.67 1.34 -0.34 0.68 0 0 Z " fill="#C8B198" transform="translate(856,106)"/>
<path d="M0 0 C2.64752004 2.57784846 4.94432065 4.91648098 7 8 C6.67 8.99 6.34 9.98 6 11 C5.67 9.68 5.34 8.36 5 7 C3.68 7 2.36 7 1 7 C0.67 4.69 0.34 2.38 0 0 Z " fill="#E2D2B2" transform="translate(677,100)"/>
<path d="M0 0 C6.57142857 5 6.57142857 5 8 10 C6.1875 9.875 6.1875 9.875 4 9 C2.26918256 6.05119992 1.08011848 3.24035543 0 0 Z " fill="#C9AF96" transform="translate(848,96)"/>
<path d="M0 0 C2.20187672 2.20187672 3.28178929 4.22885682 4.6875 7 C5.14511719 7.886875 5.60273437 8.77375 6.07421875 9.6875 C6.37972656 10.450625 6.68523438 11.21375 7 12 C6.67 12.66 6.34 13.32 6 14 C4.79719839 12.42825925 3.61318725 10.84212442 2.4375 9.25 C1.77621094 8.36828125 1.11492188 7.4865625 0.43359375 6.578125 C-1 4 -1 4 -0.71484375 1.671875 C-0.47894531 1.12015625 -0.24304688 0.5684375 0 0 Z " fill="#E5DCBC" transform="translate(680,123)"/>
<path d="M0 0 C0.66 0 1.32 0 2 0 C2.6708712 1.6232687 3.33657029 3.24867578 4 4.875 C4.556875 6.23238281 4.556875 6.23238281 5.125 7.6171875 C6 10 6 10 6 12 C5.34 12 4.68 12 4 12 C3.71125 11.030625 3.4225 10.06125 3.125 9.0625 C2.35785318 5.89335797 2.35785318 5.89335797 0 5 C0 3.35 0 1.7 0 0 Z " fill="#9E7B4C" transform="translate(163,139)"/>
<path d="M0 0 C0.33 0.66 0.66 1.32 1 2 C2.65 1.67 4.3 1.34 6 1 C6.33 2.32 6.66 3.64 7 5 C1.46153846 4.38461538 1.46153846 4.38461538 -0.875 2.4375 C-1.24625 1.963125 -1.6175 1.48875 -2 1 C-1.34 0.67 -0.68 0.34 0 0 Z " fill="#A58254" transform="translate(797,171)"/>
<path d="M0 0 C2.94721162 2.74395564 5.19168608 5.38337216 7 9 C6.67 9.66 6.34 10.32 6 11 C4.0625 10.3125 4.0625 10.3125 2 9 C1.3125 6.625 1.3125 6.625 1 4 C0.67516582 2.66457061 0.3449145 1.33038449 0 0 Z " fill="#E1D4BC" transform="translate(704,140)"/>
<path d="M0 0 C2.375 0.6875 2.375 0.6875 5 2 C6.3125 4.625 6.3125 4.625 7 7 C4.625 6.3125 4.625 6.3125 2 5 C0.6875 2.375 0.6875 2.375 0 0 Z " fill="#E3D8AE" transform="translate(579,160)"/>
<path d="M0 0 C1.53445094 3.06890187 0.54984289 5.70094266 0 9 C-0.99 9.33 -1.98 9.66 -3 10 C-3 8.35 -3 6.7 -3 5 C-2.34 5 -1.68 5 -1 5 C-0.67 3.35 -0.34 1.7 0 0 Z " fill="#8F6123" transform="translate(108,150)"/>
<path d="M0 0 C0.33 0 0.66 0 1 0 C1 2.64 1 5.28 1 8 C-0.98 8.99 -0.98 8.99 -3 10 C-2.39009109 6.44219804 -1.4216319 3.3171411 0 0 Z " fill="#C6B095" transform="translate(121,106)"/>
<path d="M0 0 C3.91402949 1.26941497 5.79072873 2.51167694 8 6 C6.35 6 4.7 6 3 6 C2.01 4.02 1.02 2.04 0 0 Z " fill="#C1AB8B" transform="translate(840,90)"/>
<path d="M0 0 C0 0.33 0 0.66 0 1 C-4.29 1 -8.58 1 -13 1 C-13 0.67 -13 0.34 -13 0 C-7.85910687 -1.85072153 -5.04468729 -2.21474076 0 0 Z " fill="#D7C47B" transform="translate(376,95)"/>
<path d="M0 0 C5.78461538 3.44615385 5.78461538 3.44615385 6.875 6.25 C6.936875 7.11625 6.936875 7.11625 7 8 C4.13792848 6.71700242 1.9754912 5.469364 0 3 C0 2.01 0 1.02 0 0 Z " fill="#F4EDCB" transform="translate(420,163)"/>
<path d="M0 0 C2.24027294 2.88035092 4.16172132 5.84866512 6 9 C4.125 8.6875 4.125 8.6875 2 8 C-0.1519437 4.77208445 -0.20086443 3.71599191 0 0 Z " fill="#BCA670" transform="translate(681,107)"/>
<path d="M0 0 C1.98 0.66 3.96 1.32 6 2 C6 2.33 6 2.66 6 3 C3.36 3.66 0.72 4.32 -2 5 C-1.34 3.35 -0.68 1.7 0 0 Z " fill="#E8DB9B" transform="translate(434,162)"/>
<path d="M0 0 C0.99 0 1.98 0 3 0 C2.30058404 3.14737182 1.23921302 6.02588876 0 9 C-1.10844919 5.67465243 -0.84454356 3.37817425 0 0 Z " fill="#997954" transform="translate(114,156)"/>
<path d="M0 0 C2.18975773 3.28463659 2.99806563 6.20696275 4 10 C3.34 10 2.68 10 2 10 C-0.4294516 6.3558226 -0.16179575 4.28758728 0 0 Z " fill="#F0EBC4" transform="translate(428,146)"/>
<path d="M0 0 C3.60654039 2.40436026 3.85452932 3.94679607 5 8 C3.68 7.67 2.36 7.34 1 7 C0.67 4.69 0.34 2.38 0 0 Z " fill="#EDE7C4" transform="translate(582,142)"/>
<path d="M0 0 C0.66 0 1.32 0 2 0 C3.32421875 1.6796875 3.32421875 1.6796875 4.6875 3.875 C5.14511719 4.59429687 5.60273437 5.31359375 6.07421875 6.0546875 C6.37972656 6.69664062 6.68523438 7.33859375 7 8 C6.67 8.66 6.34 9.32 6 10 C0.42857143 3.71428571 0.42857143 3.71428571 0 0 Z " fill="#F4EED2" transform="translate(567,142)"/>
<path d="M0 0 C2.475 0.99 2.475 0.99 5 2 C5 3.98 5 5.96 5 8 C2.74754119 5.31158141 1.11786042 3.35358125 0 0 Z " fill="#906C45" transform="translate(841,107)"/>
<path d="M0 0 C2.5654594 2.5654594 2.54046087 4.47686668 3 8 C2.34 8 1.68 8 1 8 C0.67 8.66 0.34 9.32 0 10 C0 6.7 0 3.4 0 0 Z " fill="#CEB99A" transform="translate(152,102)"/>
<path d="M0 0 C1.485 0.99 1.485 0.99 3 2 C3.6875 5.625 3.6875 5.625 4 9 C1.47740939 7.02579865 1.0070192 6.03254358 0.3125 2.8125 C0.209375 1.884375 0.10625 0.95625 0 0 Z " fill="#EFEBC2" transform="translate(416,154)"/>
</svg>
